<?xml version="1.0" standalone="no"?>
<!DOCTYPE svg PUBLIC "-//W3C//DTD SVG 1.1//EN" "http://www.w3.org/Graphics/SVG/1.1/DTD/svg11.dtd" >
<svg xmlns="http://www.w3.org/2000/svg" xmlns:xlink="http://www.w3.org/1999/xlink" version="1.1">
<metadata></metadata>
<defs>
<font id="vintage_strapslight" horiz-adv-x="749" >
<font-face units-per-em="2048" ascent="1536" descent="-512" />
<missing-glyph horiz-adv-x="555" />
<glyph horiz-adv-x="0" />
<glyph unicode="&#xd;" horiz-adv-x="555" />
<glyph unicode=" "  horiz-adv-x="555" />
<glyph unicode="&#x09;" horiz-adv-x="555" />
<glyph unicode="&#xa0;" horiz-adv-x="555" />
<glyph unicode="!" horiz-adv-x="264" d="M86 45q0 20 14.5 34.5t30.5 14.5q20 0 34.5 -14t14.5 -35q0 -16 -14 -30.5t-35 -14.5q-16 0 -30.5 14.5t-14.5 30.5zM102 207v1251h60v-1251h-60z" />
<glyph unicode="&#x22;" horiz-adv-x="415" d="M102 1139v319h60v-319h-60zM254 1139v319h59v-319h-59z" />
<glyph unicode="#" horiz-adv-x="1234" d="M102 508v57h226l55 348h-223v58h231l78 487h61l-77 -487h405l78 487h61l-77 -487h213v-58h-222l-55 -348h217v-57h-225l-80 -508h-63l79 508h-403l-80 -508h-63l79 508h-215zM389 565h406l55 348h-406z" />
<glyph unicode="$" horiz-adv-x="737" d="M102 508l2 713q0 51 18.5 97t50.5 82t76 58.5t93 26.5v125h59v-125q49 -6 92.5 -29.5t74 -58.5t49 -80t18.5 -96h-55q0 78 -51.5 136t-127.5 70v-1126h82q61 0 106.5 -44t45.5 -107q0 -61 -45 -105.5t-107 -44.5h-82v-123h-59v123h-211v55h211v189q-49 6 -93 28.5 t-77 57.5t-51.5 81t-18.5 97zM160 508q0 -80 52 -138.5t130 -68.5v1126q-78 -10 -130 -68t-52 -138v-713zM401 55h82q39 0 67 28t30 67q-2 39 -30 66.5t-67 27.5h-82v-189z" />
<glyph unicode="%" horiz-adv-x="1126" d="M102 1161v146q0 82 50.5 132t128.5 50t128 -50t50 -132v-146q0 -78 -50.5 -129t-127.5 -51q-78 0 -128.5 51t-50.5 129zM162 1165q0 -61 27.5 -97t91.5 -36q63 0 90.5 37t27.5 96v140q0 59 -26 96t-92 37q-63 0 -91 -36t-28 -97v-140zM266 0l535 1458h61l-532 -1458h-64z M668 154v145q0 80 50 130t128 50t128 -50t50 -130v-145q0 -82 -50 -132.5t-128 -50.5t-128 50.5t-50 132.5zM727 156q0 -61 27.5 -97t91.5 -36q63 0 91 36.5t28 96.5v139q0 59 -28 96t-91 37t-91 -36t-28 -97v-139z" />
<glyph unicode="&#x26;" horiz-adv-x="825" d="M102 272v670q0 68 30 125t81 94q-47 14 -79 54t-32 92q0 63 44 107t106 44h145v-55h-143q-37 0 -64.5 -28.5t-27.5 -67.5q0 -37 27.5 -65t64.5 -28h334v80h59v-80h76v-57h-76v-1157h-272q-57 0 -106.5 21.5t-86.5 58.5t-58.5 87t-21.5 105zM162 272q0 -45 16.5 -83.5 t45 -68.5t67.5 -47.5t84 -17.5h213v1102h-213q-45 0 -84 -17.5t-67.5 -46t-45 -67.5t-16.5 -84v-670z" />
<glyph unicode="'" horiz-adv-x="264" d="M102 1139v319h60v-319h-60z" />
<glyph unicode="(" horiz-adv-x="325" d="M102 8v1458q0 109 78 179l43 -37q-37 -39 -49 -68t-12 -82v-1442q0 -53 12 -81.5t49 -67.5l-43 -37q-39 29 -58.5 77t-19.5 101z" />
<glyph unicode=")" horiz-adv-x="325" d="M102 -133q37 39 49.5 67.5t12.5 81.5v1442q0 53 -12.5 82t-49.5 68l43 37q78 -70 78 -179v-1458q0 -53 -19.5 -101t-58.5 -77z" />
<glyph unicode="*" horiz-adv-x="851" d="M102 948l267 154l-267 153l29 50l266 -154v307h58v-307l266 154l29 -50l-267 -153l267 -154l-29 -49l-266 154v-308h-58v308l-266 -154z" />
<glyph unicode="+" horiz-adv-x="751" d="M102 532v58h246v241h58v-241h243v-58h-243v-247h-58v247h-246z" />
<glyph unicode="," horiz-adv-x="276" d="M102 -43v121q0 16 17 16h39q16 0 16 -16v-162q0 -18 -9 -17t-20.5 10t-22.5 21.5t-16 16.5q-2 2 -2 4q-2 2 -2 6z" />
<glyph unicode="-" horiz-adv-x="751" d="M102 532v58h547v-58h-547z" />
<glyph unicode="." horiz-adv-x="299" d="M102 45q0 20 14.5 34.5t30.5 14.5q20 0 35 -14t15 -35q0 -16 -14.5 -30.5t-35.5 -14.5q-16 0 -30.5 14.5t-14.5 30.5z" />
<glyph unicode="/" horiz-adv-x="800" d="M102 0l535 1458h61l-532 -1458h-64z" />
<glyph unicode="0" d="M102 244v970q0 55 21.5 105.5t58.5 87.5t87 58.5t106 21.5q55 0 105 -21.5t87 -58.5t58.5 -87t21.5 -106v-970q0 -55 -21.5 -105.5t-58.5 -87.5t-87 -58.5t-105 -21.5t-105.5 21.5t-87.5 58.5t-58.5 87t-21.5 106zM162 242q0 -43 16.5 -82t46 -69t68.5 -46t82 -16 q45 0 84 16t67.5 46t45 69t16.5 82v975q0 43 -16.5 81.5t-45 68.5t-67.5 46.5t-84 16.5q-43 0 -82 -16.5t-68.5 -46.5t-46 -68.5t-16.5 -81.5v-975z" />
<glyph unicode="1" horiz-adv-x="487" d="M102 1178l283 280v-1458h-59v1323l-185 -184z" />
<glyph unicode="2" horiz-adv-x="739" d="M102 0v268q0 53 26 103.5t65.5 97.5t91 90t100.5 84q35 31 69.5 60.5t62.5 57t45.5 54.5t17.5 49v355q0 43 -16.5 81.5t-45.5 67.5t-67.5 45.5t-81.5 16.5q-90 0 -149.5 -60.5t-59.5 -150.5h-58q2 55 23.5 104t56.5 86t83 57.5t104 20.5q55 0 104 -21.5t85 -57.5 t57.5 -85t21.5 -104v-355q0 -66 -64.5 -129t-152.5 -135q-45 -37 -91 -78t-83 -82t-60.5 -85t-23.5 -87v-213h485v-55h-545z" />
<glyph unicode="3" horiz-adv-x="720" d="M74 244h59q0 -43 16.5 -83t46 -69t68.5 -46t84 -17q43 0 82 17t67.5 47t45 69t16.5 82v577q0 70 -26.5 131.5t-71.5 106.5t-106.5 71.5t-131.5 26.5v57h244q39 0 65.5 28t26.5 65q0 39 -26.5 67.5t-65.5 28.5h-365v55h365q63 0 107 -44t44 -107q0 -72 -48 -111t-140 -39 q86 -53 137 -141t51 -195v-577q0 -55 -21.5 -105.5t-58 -87.5t-87 -58.5t-105.5 -21.5t-104 21.5t-87 58.5t-59.5 87t-21.5 106z" />
<glyph unicode="4" horiz-adv-x="765" d="M102 244l498 1214h64v-1458h-60v244h-502zM193 301h411v1002z" />
<glyph unicode="5" horiz-adv-x="727" d="M102 1169v289h496v-55h-440v-178h90q78 0 146.5 -30t119.5 -81t81 -120.5t30 -147.5v-584q0 -53 -20.5 -101t-56.5 -84t-83 -56.5t-100 -20.5h-236v55h236q86 0 143 60.5t57 146.5v584q0 68 -24.5 126t-67.5 102t-101.5 69.5t-123.5 25.5h-146z" />
<glyph unicode="6" d="M102 244v973q0 55 21.5 104t58.5 86t87 58.5t106 21.5q55 0 105 -21.5t87 -58.5t58.5 -86t21.5 -104h-59q0 43 -16.5 81.5t-45 68.5t-67.5 46.5t-84 16.5q-43 0 -82 -16.5t-68.5 -46.5t-46 -68.5t-16.5 -81.5v-805q37 47 92 75.5t121 28.5q55 0 105 -21.5t87 -58.5 t58.5 -87t21.5 -105t-21.5 -105.5t-58.5 -87.5t-87 -58.5t-105 -21.5t-105.5 21.5t-87.5 58.5t-58.5 87t-21.5 106zM162 244q0 -43 16.5 -82t46 -69t68.5 -46t82 -16q45 0 84 16t67.5 46t46 69t17.5 82q0 45 -17.5 84t-46 67.5t-67.5 46t-84 17.5q-43 0 -81 -16.5t-66.5 -44 t-46 -65.5t-19.5 -81v-8z" />
<glyph unicode="7" horiz-adv-x="780" d="M102 244v57h129l367 1102h-434v55h514l-387 -1157h168v-57h-189l-80 -244h-59l80 244h-109z" />
<glyph unicode="8" d="M102 244q0 78 42 143.5t108 99.5q-66 33 -108 97.5t-42 144.5v488q0 55 21.5 104t58.5 86t87 58.5t106 21.5q57 0 106 -21.5t86 -58.5t58.5 -86t21.5 -104v-488q0 -80 -42 -144.5t-107 -97.5q66 -35 107.5 -100t41.5 -143q0 -55 -21.5 -105.5t-58.5 -87.5t-86 -58.5 t-106 -21.5q-55 0 -105.5 21.5t-87.5 58.5t-58.5 87t-21.5 106zM162 244q0 -43 16.5 -83t46 -69t68.5 -46t82 -17q45 0 84 17t67.5 46t45 69t16.5 83q0 45 -16.5 84t-45 67.5t-67.5 46t-84 17.5h-10q-43 -2 -80 -19.5t-64.5 -47.5t-43 -67.5t-15.5 -80.5zM162 729 q0 -43 16.5 -82t46 -68.5t68.5 -46t82 -16.5q45 0 84 16.5t67.5 46t45 68.5t16.5 82v488q0 43 -16.5 81.5t-45 68.5t-67.5 46.5t-84 16.5q-43 0 -82 -16.5t-68.5 -46.5t-46 -68.5t-16.5 -81.5v-488z" />
<glyph unicode="9" d="M102 244h60q0 -43 16.5 -83t45 -69t67.5 -46t84 -17q43 0 82 17t68.5 46t46 69t16.5 83v800q-39 -47 -93.5 -74.5t-119.5 -27.5q-55 0 -105.5 21.5t-87.5 58.5t-58.5 87t-21.5 105t21.5 105.5t58.5 87.5t87 58.5t106 21.5q55 0 105 -21.5t87 -58.5t58.5 -87t21.5 -106 v-970q0 -55 -21.5 -105.5t-58.5 -87.5t-87 -58.5t-105 -21.5t-105.5 21.5t-87.5 58.5t-58.5 87.5t-21.5 105.5zM162 1214q0 -45 16.5 -83.5t45 -68.5t67.5 -46.5t84 -16.5q43 0 80 16.5t66.5 45.5t47 67.5t19.5 85.5q0 43 -16.5 83t-46 69t-68.5 46.5t-82 17.5 q-45 0 -84 -17.5t-67.5 -46.5t-45 -69t-16.5 -83z" />
<glyph unicode=":" horiz-adv-x="299" d="M102 45q0 20 14.5 34.5t30.5 14.5q20 0 35 -14t15 -35q0 -16 -14.5 -30.5t-35.5 -14.5q-16 0 -30.5 14.5t-14.5 30.5zM102 745q0 18 14.5 33t30.5 15q20 0 35 -14.5t15 -33.5q0 -20 -14.5 -32.5t-35.5 -12.5q-16 0 -30.5 12.5t-14.5 32.5z" />
<glyph unicode=";" horiz-adv-x="301" d="M102 748q0 20 14.5 34.5t35.5 14.5q20 0 33.5 -14.5t13.5 -34.5t-13.5 -34t-33.5 -14t-35 13.5t-15 34.5zM115 -43v121q0 16 16 16h39q16 0 16 -16v-162q0 -18 -9 -17t-20.5 10t-22.5 21.5t-15 16.5q-2 2 -2 4q-2 2 -2 6z" />
<glyph unicode="&#x3c;" horiz-adv-x="618" d="M102 463v57l414 250v-61l-352 -217l352 -216v-61z" />
<glyph unicode="=" horiz-adv-x="894" d="M102 373v57h691v-57h-691zM102 684v57h691v-57h-691z" />
<glyph unicode="&#x3e;" horiz-adv-x="618" d="M102 215v61l353 216l-353 217v61l414 -250v-57z" />
<glyph unicode="?" horiz-adv-x="761" d="M102 1208q0 57 21.5 108.5t59.5 89.5t89.5 59.5t108.5 21.5t108.5 -21.5t89 -59.5t59 -89t21.5 -109v-622q0 -55 -19 -103.5t-52 -85.5t-79 -60.5t-97 -29.5v-100h-60v158q55 0 101.5 17t79 48t50 71t17.5 85v622q0 45 -17.5 85t-47 71t-69.5 48.5t-85 17.5t-85 -17.5 t-69.5 -48.5t-47 -71t-17.5 -85h-60zM334 45q0 20 14 34.5t31 14.5q20 0 34.5 -14t14.5 -35q0 -16 -14.5 -30.5t-34.5 -14.5q-16 0 -30.5 14.5t-14.5 30.5z" />
<glyph unicode="@" horiz-adv-x="989" d="M102 393v703q0 82 31 152.5t84 123.5t125 84t154 31q80 0 151.5 -31t124.5 -84t84 -123.5t31 -152.5v-1067h-60v1067q0 70 -25.5 131t-70.5 106t-105.5 72t-129.5 27q-70 0 -131.5 -27t-106.5 -72t-70.5 -106.5t-25.5 -130.5v-703q0 -70 25.5 -131t70.5 -107t106.5 -73 t131.5 -27h90q27 0 43 18.5t16 45.5v301q-61 -68 -158 -68q-45 0 -83.5 17.5t-68.5 46t-47.5 68.5t-17.5 85v351q0 45 17.5 84.5t47.5 68.5t68.5 46.5t83.5 17.5q92 0 155 -62.5t63 -154.5v-801q0 -47 -35 -83t-84 -36h-90q-82 0 -154 30.5t-125 84t-84 125t-31 153.5z M330 569q0 -68 46 -114.5t111 -46.5q66 0 110 42t48 105v365q0 68 -45 114.5t-113 46.5q-66 0 -111.5 -47t-45.5 -114v-351z" />
<glyph unicode="A" d="M102 0v1214q0 57 21.5 106.5t58.5 86.5t87.5 58.5t105.5 21.5t105 -21.5t87 -58.5t58.5 -86t21.5 -107v-1214h-59v244h-426v-244h-60zM162 301h426v913q0 45 -16.5 84t-46 68t-68.5 46.5t-82 17.5q-45 0 -84 -17.5t-67.5 -46.5t-45 -67.5t-16.5 -84.5v-913z" />
<glyph unicode="B" d="M102 0v1458h273q57 0 106 -21.5t86 -58.5t58.5 -87t21.5 -105v-670q0 -68 -29.5 -125t-80.5 -94q47 -14 78.5 -54t31.5 -91q0 -63 -44 -107.5t-105 -44.5h-396zM162 55h334q37 0 64.5 29t27.5 68q0 37 -28 64.5t-64 27.5h-334v-189zM162 301h213q45 0 84 16.5t67.5 46 t45 68.5t16.5 84v670q0 45 -16.5 84t-45 68.5t-67.5 47t-84 17.5h-213v-1102z" />
<glyph unicode="C" d="M102 244v970q0 57 21.5 106.5t58.5 86.5t87 58.5t106 21.5q57 0 106 -21.5t86 -58.5t58.5 -86t21.5 -107h-59q0 45 -16.5 84t-45 68t-67.5 46.5t-84 17.5q-43 0 -82 -17.5t-68.5 -46.5t-46 -67.5t-16.5 -84.5v-970q0 -45 16.5 -84t46 -69t68.5 -46t82 -16q45 0 84 16 t67.5 46t45 69t16.5 84h59q0 -57 -21.5 -106.5t-58.5 -86.5t-86 -58.5t-106 -21.5q-55 0 -105.5 21.5t-87.5 58.5t-58.5 86t-21.5 107z" />
<glyph unicode="D" horiz-adv-x="727" d="M102 0v1458h260q55 0 102.5 -20.5t83.5 -56t56.5 -83t20.5 -102.5v-934q0 -55 -20.5 -102t-56.5 -83t-83.5 -56.5t-102.5 -20.5h-260zM162 55h200q43 0 81 16.5t66 44t44 65.5t16 81v934q0 43 -16 81t-44 65.5t-65.5 44t-81.5 16.5h-200v-1348z" />
<glyph unicode="E" horiz-adv-x="700" d="M102 0v1458h379v-55h-319v-1102h203v-57h-203v-189h436v-55h-496z" />
<glyph unicode="F" horiz-adv-x="708" d="M102 0v1458h504v-55h-444v-1102h325v-57h-325v-244h-60z" />
<glyph unicode="G" d="M102 244v970q0 57 21.5 106.5t58.5 86.5t87 58.5t106 21.5q57 0 106 -21.5t86 -58.5t58.5 -86t21.5 -107h-59q0 45 -16.5 84t-45 68t-67.5 46.5t-84 17.5q-43 0 -82 -17.5t-68.5 -46.5t-46 -67.5t-16.5 -84.5v-970q0 -45 16.5 -84t46 -69t68.5 -46t82 -16q45 0 84 16 t67.5 46t45 69t16.5 84h-334v57h393v-57q0 -57 -21.5 -106.5t-58.5 -86.5t-86 -58.5t-106 -21.5q-55 0 -105.5 21.5t-87.5 58.5t-58.5 86t-21.5 107z" />
<glyph unicode="H" d="M102 0v1458h60v-1157h426v1157h59v-1458h-59v244h-426v-244h-60z" />
<glyph unicode="I" horiz-adv-x="264" d="M102 0v1458h60v-1458h-60z" />
<glyph unicode="J" d="M102 244h60q0 -45 16.5 -84t45 -69t67.5 -46t84 -16t84 16t67.5 46t45 69t16.5 84v1214h59v-1214q0 -57 -21.5 -106.5t-58.5 -86.5t-87 -58.5t-105 -21.5t-105.5 21.5t-87.5 58.5t-58.5 86t-21.5 107z" />
<glyph unicode="K" d="M102 0v1458h60v-1186h211q45 0 84 16.5t67.5 46.5t46 68.5t17.5 81.5v973h59v-973q0 -49 -16.5 -93t-46 -80t-69.5 -60.5t-87 -34.5l219 -217h-82l-213 213h-190v-213h-60z" />
<glyph unicode="L" horiz-adv-x="720" d="M102 0v1458h60v-1403h456v-55h-516z" />
<glyph unicode="M" horiz-adv-x="1236" d="M102 0v1458h62l454 -1251l455 1251h62v-1458h-60v1292l-457 -1255l-456 1255v-1292h-60z" />
<glyph unicode="N" d="M102 0v1458h60l426 -1274v1274h59v-1458h-59l-426 1278v-1278h-60z" />
<glyph unicode="O" d="M102 244v970q0 55 21.5 105.5t58.5 87.5t87 58.5t106 21.5q55 0 105 -21.5t87 -58.5t58.5 -87t21.5 -106v-970q0 -55 -21.5 -105.5t-58.5 -87.5t-87 -58.5t-105 -21.5t-105.5 21.5t-87.5 58.5t-58.5 87t-21.5 106zM162 242q0 -43 16.5 -82t46 -69t68.5 -46t82 -16 q45 0 84 16t67.5 46t45 69t16.5 82v975q0 43 -16.5 81.5t-45 68.5t-67.5 46.5t-84 16.5q-43 0 -82 -16.5t-68.5 -46.5t-46 -68.5t-16.5 -81.5v-975z" />
<glyph unicode="P" d="M102 0v1458h273q55 0 105 -21.5t87 -58.5t58.5 -87t21.5 -105v-670q0 -57 -21.5 -106.5t-58.5 -86t-87 -58t-105 -21.5h-213v-244h-60zM162 301h213q43 0 82 16.5t68.5 46t46 68.5t16.5 84v672q0 45 -16.5 84t-46 67.5t-68.5 46t-82 17.5h-213v-1102z" />
<glyph unicode="Q" d="M102 244v970q0 57 21.5 106.5t58.5 86.5t87 58.5t106 21.5q57 0 106 -21.5t86 -58.5t58.5 -86t21.5 -107v-970q0 -94 -54 -165t-138 -95l88 -88l-43 -41l-117 116h-8q-55 0 -105.5 21.5t-87.5 58.5t-58.5 86t-21.5 107zM162 244q0 -45 16.5 -84t46 -69t68.5 -46t82 -16 q45 0 84 16t67.5 46t45 69t16.5 84v970q0 45 -16.5 84t-45 68t-67.5 46.5t-84 17.5q-43 0 -82 -17.5t-68.5 -46.5t-46 -67.5t-16.5 -84.5v-970z" />
<glyph unicode="R" d="M102 0v1458h273q55 0 105 -21.5t87 -58.5t58.5 -87t21.5 -105v-701q0 -98 -60.5 -159.5t-152.5 -77.5l223 -248h-79l-218 244h-198v-244h-60zM162 301h213q88 0 150.5 48t62.5 136v703q0 45 -16.5 84t-46 67.5t-68.5 46t-82 17.5h-213v-1102z" />
<glyph unicode="S" horiz-adv-x="737" d="M102 508v713q0 55 20.5 103t57.5 85t85 57.5t104 20.5q55 0 103 -20.5t85 -57.5t57.5 -85t20.5 -103h-55q0 43 -16.5 81.5t-45.5 66.5t-67.5 44.5t-81.5 16.5t-81 -16.5t-66.5 -44.5t-45 -66.5t-16.5 -81.5v-713q0 -43 16.5 -81t45 -65.5t66.5 -44t81 -16.5h114 q61 0 106.5 -44t45.5 -107q0 -61 -45.5 -105.5t-106.5 -44.5h-352v55h352q39 0 67 28t30 67q-2 39 -30 66.5t-67 27.5h-114q-55 0 -103.5 20.5t-84.5 56t-57.5 84t-21.5 103.5z" />
<glyph unicode="T" horiz-adv-x="690" d="M102 1403v55h486v-55h-213v-1403h-60v1403h-213z" />
<glyph unicode="U" d="M102 244v1214h60v-1214q0 -45 16.5 -84t45 -69t67.5 -46t84 -16t84 16t67.5 46t45 69t16.5 84v1214h59v-1214q0 -57 -21.5 -106.5t-58.5 -86.5t-87 -58.5t-105 -21.5t-105.5 21.5t-87.5 58.5t-58.5 86t-21.5 107z" />
<glyph unicode="V" horiz-adv-x="751" d="M102 1458h60l213 -1280l213 1280h61l-246 -1458h-57z" />
<glyph unicode="W" horiz-adv-x="1236" d="M102 1458h60l213 -1280l215 1280h57l215 -1280l213 1280h60l-244 -1458h-57l-216 1280l-215 -1280h-57z" />
<glyph unicode="X" horiz-adv-x="792" d="M102 0l246 729l-246 729h70l225 -688l221 688h72l-244 -729l244 -729h-72l-221 688l-225 -688h-70z" />
<glyph unicode="Y" d="M102 1458h60l213 -1067l213 1067h59l-244 -1218v-240h-57v240z" />
<glyph unicode="Z" horiz-adv-x="772" d="M102 0l486 1403h-445v55h527l-488 -1403h447v-55h-527z" />
<glyph unicode="[" horiz-adv-x="466" d="M102 -152v1762h263v-58h-205v-1646h205v-58h-263z" />
<glyph unicode="\" horiz-adv-x="800" d="M102 1458h62l534 -1458h-63z" />
<glyph unicode="]" horiz-adv-x="466" d="M102 -94h205v1646h-205v58h263v-1762h-263v58z" />
<glyph unicode="^" horiz-adv-x="917" d="M102 864l320 606h74l319 -606h-57l-299 561l-299 -561h-58z" />
<glyph unicode="_" horiz-adv-x="1263" d="M102 -248h1059v-57h-1059v57z" />
<glyph unicode="`" horiz-adv-x="378" d="M102 1898h62l112 -301h-63z" />
<glyph unicode="a" horiz-adv-x="757" d="M102 246v174q0 57 21.5 107.5t59.5 88t88.5 59t107.5 21.5q66 0 122 -28.5t95 -77.5v168q0 37 -19.5 73.5t-50 64.5t-69.5 45t-78 17h-176v58h176q57 0 107.5 -21.5t88 -59.5t59 -88t21.5 -108v-739h-59v76q-39 -47 -95.5 -76t-121.5 -29q-57 0 -107.5 21.5t-88.5 58.5 t-59.5 87t-21.5 108zM162 246q0 -45 17.5 -84t46 -69t68.5 -47t85 -17t84 17t68.5 47t47 69t17.5 84v174q0 45 -17.5 85t-47 69.5t-68.5 47t-84 17.5t-85 -17.5t-68.5 -47t-46 -69.5t-17.5 -85v-174z" />
<glyph unicode="b" horiz-adv-x="757" d="M102 246v1212h60v-549q39 49 95 78t122 29q57 0 107.5 -21.5t88 -59.5t59 -88t21.5 -108v-493q0 -57 -21.5 -107.5t-59 -87.5t-88 -58.5t-107.5 -21.5t-107.5 21.5t-88.5 58.5t-59.5 87t-21.5 108zM162 246q0 -45 17.5 -84t47 -69t68.5 -47t84 -17t85 17t68.5 47t46 69 t17.5 84v493q0 45 -17.5 85t-46 70t-68.5 47t-85 17t-84 -17t-68.5 -47t-47 -70t-17.5 -85v-493z" />
<glyph unicode="c" horiz-adv-x="755" d="M102 246v493q0 57 21.5 107.5t58.5 88.5t87 59.5t108 21.5q57 0 107.5 -21.5t88 -59.5t59 -88t21.5 -108h-57q0 45 -17.5 85t-47 70t-69.5 47t-85 17t-84 -17t-68.5 -47t-46 -70t-16.5 -85v-493q0 -45 16.5 -84t46 -69t68.5 -47t84 -17t85 16t69.5 46t47 69t17.5 84h57 q0 -57 -21.5 -106.5t-59 -86.5t-88 -58.5t-107.5 -21.5t-107.5 21.5t-87.5 58.5t-58.5 87t-21.5 108z" />
<glyph unicode="d" horiz-adv-x="757" d="M102 246v493q0 57 21.5 107.5t59.5 88.5t88.5 59.5t107.5 21.5q66 0 122 -29t95 -76v547h59v-1212q0 -57 -21.5 -107.5t-59 -87.5t-88 -58.5t-107.5 -21.5t-107.5 21.5t-88.5 58.5t-59.5 87.5t-21.5 107.5zM162 246q0 -45 17.5 -84t47 -69t68.5 -47t84 -17t85 17t68.5 47 t46 69t17.5 84v502q-2 43 -20.5 81.5t-47 67.5t-67.5 45t-82 16q-45 0 -84 -17t-68.5 -47t-47 -70t-17.5 -85v-493z" />
<glyph unicode="e" horiz-adv-x="757" d="M102 276v463q0 57 21.5 107.5t59.5 88.5t88.5 59.5t107.5 21.5t107.5 -21.5t88 -59.5t59 -88t21.5 -108v-495h-491q6 -39 24.5 -74t47 -60.5t65.5 -40t78 -14.5h246v-55h-246q-57 0 -107.5 21.5t-88.5 59.5t-59.5 88t-21.5 107zM162 301h434v438q0 45 -17.5 85t-47 70 t-68.5 47t-84 17t-85 -17t-68.5 -47t-46 -70t-17.5 -85v-438z" />
<glyph unicode="f" horiz-adv-x="464" d="M102 0v1214q0 57 21.5 106.5t58.5 86.5t87 58.5t106 21.5v-57q-45 0 -84 -17.5t-67.5 -46.5t-45 -67.5t-16.5 -84.5v-913h213v-57h-213v-244h-60z" />
<glyph unicode="g" horiz-adv-x="757" d="M102 -111q0 51 32 89t79 49q-51 39 -81 96t-30 125v493q0 57 21.5 107.5t59.5 87.5t88.5 58.5t107.5 21.5q66 0 122 -27.5t95 -77.5v72h59v-242v-493q0 -57 -21.5 -107.5t-59 -88.5t-88 -59.5t-107.5 -21.5h-135q-35 0 -58.5 -23.5t-23.5 -58.5t23.5 -59.5t58.5 -24.5 h135q57 0 108.5 -12t88 -33.5t58 -51.5t21.5 -64q0 -70 -73.5 -118t-202.5 -48q-137 0 -207 48t-70 118q0 35 21.5 65.5t60.5 52.5q-37 16 -59.5 51t-22.5 76zM162 248q0 -45 17.5 -84t47 -68.5t68.5 -47t84 -17.5t84 17.5t68.5 47t47 68.5t17.5 84v493q0 45 -17.5 84 t-47 68t-68.5 46t-84 17t-84 -17t-68.5 -46t-47 -68t-17.5 -84v-493zM162 -356q0 -37 31.5 -60.5t80.5 -35.5q46 -10 96 -10h9q55 1 104 12.5t81 35t32 58.5q0 31 -32 53t-81 34.5t-104 13.5h-10q-49 0 -95 -9q-49 -10 -80.5 -34t-31.5 -58z" />
<glyph unicode="h" horiz-adv-x="757" d="M102 0v1458h60v-549q39 47 95 77t122 30q57 0 107.5 -21.5t88 -58.5t59 -87t21.5 -108v-741h-59v741q0 45 -17.5 84t-46 69t-68.5 47t-85 17t-84 -17t-68.5 -47t-47 -69t-17.5 -84v-741h-60z" />
<glyph unicode="i" horiz-adv-x="264" d="M86 1409q0 20 14.5 34.5t30.5 14.5q20 0 34.5 -14t14.5 -35q0 -16 -14 -30.5t-35 -14.5q-16 0 -30.5 14.5t-14.5 30.5zM102 0v989h60v-989h-60z" />
<glyph unicode="j" horiz-adv-x="272" d="M16 -465q39 0 67 27.5t28 66.5v1358h59v-1358q0 -63 -45 -108t-109 -45v59zM94 1409q0 20 14.5 34.5t30.5 14.5q20 0 34.5 -14t14.5 -35q0 -16 -14 -30.5t-35 -14.5q-16 0 -30.5 14.5t-14.5 30.5z" />
<glyph unicode="k" horiz-adv-x="763" d="M102 0v987h60v-686h344q41 0 68.5 27.5t27.5 68.5v590h60v-590q0 -57 -37 -99t-90 -52l127 -246h-70l-121 244h-309v-244h-60z" />
<glyph unicode="l" horiz-adv-x="278" d="M23 1430v57q63 0 108 -44t45 -106v-1337h-59v1337q0 39 -28 66t-66 27z" />
<glyph unicode="m" horiz-adv-x="1251" d="M102 0v987h60v-78q39 49 95 78t122 29q80 0 145.5 -42t100.5 -110q35 68 100.5 110t146.5 42q57 0 107.5 -21.5t88.5 -59.5t59.5 -88t21.5 -108v-739h-59v739q0 45 -17.5 85t-47.5 69t-68.5 46t-84.5 17q-90 0 -151.5 -60t-65.5 -148v-748h-59v739q0 45 -17.5 85t-47 69 t-68.5 46t-84 17q-90 0 -151.5 -60t-65.5 -148v-748h-60z" />
<glyph unicode="n" horiz-adv-x="757" d="M102 0v987h60v-78q39 47 95 77t122 30q57 0 107.5 -21.5t88 -58.5t59 -87t21.5 -108v-741h-59v741q0 45 -17.5 84t-46 69t-68.5 47t-85 17t-84 -17t-68.5 -47t-47 -69t-17.5 -84v-741h-60z" />
<glyph unicode="o" d="M102 244v499q0 55 21.5 105.5t58.5 87.5t87 58.5t106 21.5q55 0 105 -21.5t87 -58.5t58.5 -87t21.5 -106v-499q0 -55 -21.5 -105.5t-58.5 -87.5t-87 -58.5t-105 -21.5t-105.5 21.5t-87.5 58.5t-58.5 87t-21.5 106zM162 242q0 -43 16.5 -82t46 -69t68.5 -46t82 -16 q45 0 84 16t67.5 46t45 69t16.5 82v503q0 43 -16.5 82t-45 69t-67.5 46t-84 16q-43 0 -82 -16t-68.5 -46t-46 -69t-16.5 -82v-503z" />
<glyph unicode="p" horiz-adv-x="757" d="M102 -524v1265q0 57 21.5 107.5t59.5 87.5t88.5 58.5t107.5 21.5t107.5 -21.5t88 -58.5t59 -87.5t21.5 -107.5v-493q0 -57 -21.5 -107.5t-59 -88.5t-88 -59.5t-107.5 -21.5q-66 0 -122 29t-95 78v-602h-60zM162 248q0 -45 17.5 -85t47 -70t68.5 -47t84 -17t85 17t68.5 47 t46 70t17.5 85v493q0 92 -62.5 154.5t-154.5 62.5q-45 0 -84 -17t-68.5 -46t-47 -69t-17.5 -85v-493z" />
<glyph unicode="q" horiz-adv-x="757" d="M102 248v493q0 57 21.5 107.5t59.5 87.5t88.5 58.5t107.5 21.5t107.5 -21.5t88 -58.5t59 -87t21.5 -108v-1265h-59v602q-39 -49 -95.5 -78t-121.5 -29q-57 0 -107.5 21.5t-88.5 59.5t-59.5 88t-21.5 108zM162 248q0 -45 17.5 -85t46 -70t68.5 -47t85 -17q43 0 82 16 t67.5 45t47 67t20.5 81v503q0 45 -17.5 85t-47 69t-68.5 46t-84 17q-92 0 -154.5 -62t-62.5 -155v-493z" />
<glyph unicode="r" horiz-adv-x="481" d="M102 0v987h60v-78q37 49 94 78t123 29v-58q-43 0 -82 -15t-67.5 -43t-47 -64.5t-20.5 -79.5v-756h-60z" />
<glyph unicode="s" horiz-adv-x="757" d="M102 520v221q0 57 21.5 107.5t59.5 87.5t88.5 58.5t107.5 21.5t107.5 -21.5t88 -58.5t59 -87t21.5 -108h-59q0 45 -17.5 84t-47 69t-68.5 47t-84 17t-85 -17t-68.5 -47t-46 -69t-17.5 -84v-221q0 -45 17.5 -85t46 -69.5t68.5 -47t85 -17.5h119q63 0 109 -41t48 -108 q-2 -66 -48 -109t-109 -43h-367v55h367q41 0 68.5 28t29.5 69q-2 41 -29.5 66.5t-68.5 25.5h-119q-57 0 -107.5 21.5t-88.5 59t-59.5 88t-21.5 107.5z" />
<glyph unicode="t" horiz-adv-x="598" d="M102 150v1337h60v-471h334v-58h-334v-808q0 -39 27.5 -66t66.5 -27h240v-57h-240q-63 0 -108.5 44t-45.5 106z" />
<glyph unicode="u" horiz-adv-x="757" d="M102 248v739h60v-739q0 -45 17.5 -85t46 -70t68.5 -47t85 -17t85 17t68.5 47t46 70t17.5 85v739h59v-739q0 -57 -21.5 -107.5t-59 -88.5t-88 -59.5t-107.5 -21.5t-107.5 21.5t-88.5 59.5t-59.5 88t-21.5 108z" />
<glyph unicode="v" horiz-adv-x="759" d="M102 987h62l217 -864l215 864h61l-247 -987h-58z" />
<glyph unicode="w" horiz-adv-x="1251" d="M102 987h60l217 -862l217 862h57l217 -862l217 862h62l-250 -987h-57l-217 866l-217 -866h-58z" />
<glyph unicode="x" horiz-adv-x="677" d="M102 0l197 492l-197 495h68l170 -446l168 446h67l-194 -495l194 -492h-67l-168 442l-170 -442h-68z" />
<glyph unicode="y" horiz-adv-x="772" d="M102 987h64l221 -883l219 883h64l-254 -987v-524h-60v524z" />
<glyph unicode="z" horiz-adv-x="761" d="M102 0l467 932h-422v55h512l-466 -932h421v-55h-512z" />
<glyph unicode="{" horiz-adv-x="464" d="M102 705v49h25q41 0 57.5 30.5t16.5 65.5v614q0 84 29.5 115t113.5 31h18v-54h-18q-55 0 -69.5 -19t-14.5 -75v-614q0 -43 -17.5 -69.5t-58.5 -49.5q41 -23 58.5 -49.5t17.5 -69.5v-614q0 -55 14.5 -74.5t69.5 -19.5h18v-54h-18q-84 0 -113.5 31t-29.5 115v614 q0 35 -16.5 66t-57.5 31h-25z" />
<glyph unicode="|" horiz-adv-x="264" d="M102 -152v1764h60v-1764h-60z" />
<glyph unicode="}" horiz-adv-x="464" d="M102 705v49h25q41 0 57.5 30.5t16.5 65.5v614q0 84 29.5 115t113.5 31h18v-54h-18q-55 0 -69.5 -19t-14.5 -75v-614q0 -43 -17.5 -69.5t-58.5 -49.5q41 -23 58.5 -49.5t17.5 -69.5v-614q0 -55 14.5 -74.5t69.5 -19.5h18v-54h-18q-84 0 -113.5 31t-29.5 115v614 q0 35 -16.5 66t-57.5 31h-25z" />
<glyph unicode="~" horiz-adv-x="997" d="M102 874q29 39 66 70q31 27 73 49.5t93 22.5q59 0 101 -18.5t78 -40t72 -40t83 -18.5q41 0 72.5 8t54.5 19q27 12 47 28l53 -26q-29 -29 -69 -49.5t-85 -29.5t-90 -7t-84 18q-29 10 -56.5 27.5t-57 33t-59 26.5t-60.5 11q-35 0 -69 -16t-58 -37q-31 -23 -55 -51z" />
<glyph unicode="&#xa1;" horiz-adv-x="264" d="M86 942q0 16 14.5 30.5t30.5 14.5q20 0 34.5 -14.5t14.5 -30.5q0 -20 -14 -34.5t-35 -14.5q-16 0 -30.5 14.5t-14.5 34.5zM102 -471v1251h60v-1251h-60z" />
<glyph unicode="&#xa2;" horiz-adv-x="755" d="M102 242v493q0 53 18.5 100.5t51.5 84t78 60.5t96 30v362h60v-362q51 -6 97 -29t78.5 -59.5t52 -85t19.5 -101.5h-57q0 41 -14.5 78t-41 66.5t-61.5 48t-73 24.5v-925q80 10 135 69.5t55 143.5h57q0 -53 -19.5 -100.5t-52 -83.5t-78.5 -58.5t-97 -28.5v-360h-60v360 q-51 6 -96 28.5t-78 59.5t-51.5 84t-18.5 101zM162 242q0 -41 14 -78t39 -65.5t58.5 -47t72.5 -24.5v923q-78 -10 -131 -71.5t-53 -143.5v-493z" />
<glyph unicode="&#xa3;" horiz-adv-x="968" d="M104 588v57h244v813h60v-813h243v-57h-243v-533h456v-55h-516v588h-244z" />
<glyph unicode="&#xa4;" horiz-adv-x="911" d="M102 725q0 72 27 136.5t78 113.5q23 23 47.5 39t50.5 30l-147 410h61l141 -391q23 6 46.5 10t48.5 4t48 -4t46 -10l143 391h62l-150 -410q29 -12 53.5 -29.5t47.5 -39.5q51 -49 77.5 -113.5t26.5 -136.5q0 -145 -104 -250q-45 -45 -103 -72l152 -407h-64l-143 389 q-43 -12 -92 -12q-47 0 -93 12l-141 -389h-63l149 407q-29 14 -53.5 32t-46.5 40q-104 104 -105 250zM162 725q0 -61 22.5 -114.5t62.5 -93.5t93 -63.5t115 -23.5q61 0 114.5 23.5t93 63.5t63.5 93.5t24 114.5t-24 114.5t-63.5 93.5t-93 63.5t-114.5 23.5t-114.5 -23.5 t-93.5 -63.5t-62.5 -93.5t-22.5 -114.5z" />
<glyph unicode="&#xa5;" horiz-adv-x="894" d="M102 375v57h316v252h-316v57h316v123l-244 594h59l213 -512l213 512h60l-244 -594v-123h318v-57h-318v-252h318v-57h-318v-375h-57v375h-316z" />
<glyph unicode="&#xa6;" horiz-adv-x="264" d="M102 -152v734h60v-734h-60zM102 877v735h60v-735h-60z" />
<glyph unicode="&#xa7;" horiz-adv-x="747" d="M102 401v213l2 607q0 55 21.5 103t57.5 85t84 57.5t104 20.5q55 0 103 -20.5t85 -57.5t57.5 -85t20.5 -103h-55q0 43 -16.5 81.5t-45 66.5t-67.5 44.5t-82 16.5t-81 -16.5t-66.5 -44.5t-45 -66.5t-16.5 -81.5v-449q37 47 92 76t121 29q55 0 105 -21.5t87 -58.5 t58.5 -87.5t21.5 -105.5l-2 -819q0 -55 -21.5 -103.5t-57.5 -85t-84 -57t-103 -20.5t-103.5 20.5t-85 57t-57 85t-20.5 103.5h55q0 -43 16.5 -82t45 -66.5t67.5 -44t82 -16.5t81 16.5t66.5 44t45 66.5t16.5 82v446q-39 -47 -93.5 -74.5t-119.5 -27.5q-55 0 -105.5 21.5 t-87.5 58.5t-58.5 87t-21.5 105zM162 399q0 -43 16.5 -81.5t46 -68.5t68.5 -46.5t82 -16.5q45 0 84 16.5t67.5 46.5t45 68.5t16.5 81.5v207q0 43 -16.5 82t-45 68.5t-67.5 46t-84 16.5q-43 0 -82 -16.5t-68.5 -46t-46 -68.5t-16.5 -82v-207z" />
<glyph unicode="&#xa8;" horiz-adv-x="532" d="M102 1774q0 20 14.5 34.5t33.5 14.5q20 0 32.5 -14.5t12.5 -34.5q0 -16 -12.5 -30.5t-32.5 -14.5q-18 0 -33 14t-15 31zM336 1774q0 20 14.5 34.5t34.5 14.5q16 0 30.5 -14.5t14.5 -34.5q0 -16 -14.5 -30.5t-30.5 -14.5q-20 0 -34.5 14t-14.5 31z" />
<glyph unicode="&#xa9;" horiz-adv-x="1253" d="M102 494q0 113 44 208t117 164.5t167 109.5t197 40q111 0 206 -42t165.5 -115t111.5 -167t41 -198q0 -113 -44 -208.5t-116.5 -165t-168 -109.5t-195.5 -40q-109 0 -205 42t-167 115t-112 167t-41 199zM162 494q0 -96 37 -181.5t99 -148t147 -99t182 -36.5q96 0 181 36.5 t147.5 99t99.5 147.5t37 182q0 96 -37 181t-99.5 147.5t-147.5 99t-181 36.5t-181.5 -36.5t-147.5 -99t-99 -147.5t-37 -181zM348 426v137q0 57 21.5 107.5t58.5 88.5t87 59.5t108 21.5q57 0 107 -21.5t88 -59.5t59.5 -88t21.5 -108h-57q0 45 -17.5 85t-47 70t-69.5 47 t-85 17t-84 -17t-69 -47t-46 -70t-16 -85v-137q0 -45 16 -84t46 -68.5t69 -47t84 -17.5t85 16.5t69.5 46t47 68.5t17.5 84h57q0 -57 -21.5 -106.5t-59.5 -86t-88 -58t-107 -21.5t-107.5 21.5t-87.5 58t-58.5 87t-21.5 107.5z" />
<glyph unicode="&#xaa;" horiz-adv-x="593" d="M82 1059v8q0 43 16.5 82t45 67.5t67.5 45t82 16.5q49 0 92 -21.5t72 -60.5v66q0 29 -14.5 56.5t-38 49t-52 34.5t-59.5 13h-135v43h135q43 0 82 -16.5t66.5 -45t44 -67.5t16.5 -82v-375h-45v58q-29 -37 -72 -58.5t-92 -21.5q-43 0 -82 16.5t-67.5 45t-45 66.5t-16.5 81z M127 1059q0 -68 48 -116t118 -48q68 0 116 48t48 116v8q0 70 -48 118t-116 48q-70 0 -118 -48t-48 -118v-8z" />
<glyph unicode="&#xab;" horiz-adv-x="821" d="M100 463v57l414 311v-61l-352 -278l352 -277v-61zM305 463v57l414 311v-61l-352 -278l352 -277v-61z" />
<glyph unicode="&#xac;" horiz-adv-x="1040" d="M102 532v58h836v-373h-57v315h-779z" />
<glyph unicode="&#xad;" horiz-adv-x="751" d="M102 532v58h547v-58h-547z" />
<glyph unicode="&#xae;" horiz-adv-x="1253" d="M102 494q0 113 44 208t117 164.5t167 109.5t197 40q111 0 206 -42t165.5 -115t111.5 -167t41 -198q0 -113 -44 -208.5t-116.5 -165t-168 -109.5t-195.5 -40q-109 0 -205 42t-167 115t-112 167t-41 199zM162 494q0 -96 37 -181.5t99 -148t147 -99t182 -36.5q96 0 181 36.5 t147.5 99t99.5 147.5t37 182q0 96 -37 181t-99.5 147.5t-147.5 99t-181 36.5t-181.5 -36.5t-147.5 -99t-99 -147.5t-37 -181zM397 152v688h273q55 0 105 -21.5t87 -58.5t58.5 -87t21.5 -106v-45q0 -98 -60.5 -159.5t-152.5 -77.5l121 -133h-80l-115 129h-198v-129h-60z M457 338h213q88 0 150.5 48t62.5 136v47q0 45 -16.5 84t-46 68t-68.5 46t-82 17h-213v-446z" />
<glyph unicode="&#xb0;" horiz-adv-x="847" d="M102 1151q0 68 26 126t69 101t101 69t126 26t126 -26t101 -69t68.5 -101t25.5 -126t-25.5 -126t-68.5 -101t-101 -69t-126 -26t-126 26t-101 69t-69 101t-26 126zM162 1151q0 -57 19.5 -106.5t55 -85t84 -56t103.5 -20.5t103 20.5t84 56t55.5 85t19.5 106.5t-20.5 106.5 t-55.5 85t-84 56t-104 20.5t-103.5 -20.5t-83 -56t-54 -85t-19.5 -106.5z" />
<glyph unicode="&#xb1;" horiz-adv-x="751" d="M102 168v57h547v-57h-547zM102 532v58h246v241h58v-241h243v-58h-243v-247h-58v247h-246z" />
<glyph unicode="&#xb2;" d="M102 760v51q0 72 36 115t88.5 69.5t114.5 43t114.5 38t88.5 54t36 90.5q0 88 -49.5 149.5t-161.5 61.5q-90 0 -149.5 -60.5t-59.5 -150.5h-58q2 55 23.5 104t56.5 86t83 57.5t104 20.5q68 0 118 -21.5t83.5 -57.5t50 -85t16.5 -104q0 -76 -35 -118t-88 -65.5t-114.5 -38 t-115 -34t-88 -53t-34.5 -97.5h485v-55h-545z" />
<glyph unicode="&#xb3;" d="M102 973h60q0 -43 16.5 -83t46 -68.5t68.5 -46t84 -17.5q43 0 82 17.5t67.5 47t45 68.5t16.5 82q0 70 -26.5 107.5t-72 54t-106.5 19.5t-131 3v57h244q39 0 65.5 28t26.5 65q0 39 -26.5 67.5t-65.5 28.5h-365v55h365q63 0 107 -44t44 -107q0 -35 -12 -59.5t-27.5 -40 t-30 -22.5t-16.5 -7q2 0 15.5 -10.5t29 -33t28.5 -61.5t13 -100q0 -55 -21.5 -105.5t-58.5 -87.5t-87 -58.5t-105 -21.5t-104.5 21.5t-87.5 58.5t-59.5 87.5t-21.5 105.5z" />
<glyph unicode="&#xb4;" horiz-adv-x="378" d="M102 1597l113 301h61l-110 -301h-64z" />
<glyph unicode="&#xb5;" horiz-adv-x="757" d="M102 -524v1511h60v-739q0 -45 17.5 -85t46 -70t68.5 -47t85 -17t85 17t68.5 47t46 70t17.5 85v739h59v-739q0 -57 -21.5 -107.5t-59 -88.5t-88 -59.5t-107.5 -21.5q-66 0 -122 29t-95 78v-602h-60z" />
<glyph unicode="&#xb6;" horiz-adv-x="1228" d="M102 887v299q0 55 21.5 105t58.5 87t87 58.5t106 21.5h758v-55h-213v-1403h-60v1403h-213v-1403h-59v614h-213q-55 0 -105.5 21.5t-87.5 58.5t-58.5 86t-21.5 107z" />
<glyph unicode="&#xb7;" horiz-adv-x="354" d="M104 537q0 33 21.5 55t50.5 22q33 0 55.5 -22.5t22.5 -54.5q0 -29 -22.5 -50.5t-55.5 -21.5q-29 0 -50.5 21.5t-21.5 50.5z" />
<glyph unicode="&#xb8;" horiz-adv-x="407" d="M102 -444l142 301h61l-110 -301h-93z" />
<glyph unicode="&#xb9;" horiz-adv-x="487" d="M102 1178l283 280v-729h-59v594l-185 -184z" />
<glyph unicode="&#xba;" d="M102 973v241q0 55 21.5 105.5t58.5 87.5t87 58.5t106 21.5q55 0 105 -21.5t87 -58.5t58.5 -87t21.5 -106v-241q0 -55 -21.5 -105.5t-58.5 -87.5t-87 -58.5t-105 -21.5t-105.5 21.5t-87.5 58.5t-58.5 87.5t-21.5 105.5zM162 971q0 -43 16.5 -82t46 -68.5t68.5 -46 t82 -16.5q45 0 84 16.5t67.5 46t45 68.5t16.5 82v246q0 43 -16.5 81.5t-45 68.5t-67.5 46.5t-84 16.5q-43 0 -82 -16.5t-68.5 -46.5t-46 -68.5t-16.5 -81.5v-246z" />
<glyph unicode="&#xbb;" horiz-adv-x="825" d="M102 154v61l353 277l-353 278v61l414 -311v-57zM307 154v61l352 277l-352 278v61l414 -311v-57z" />
<glyph unicode="&#xbc;" horiz-adv-x="1214" d="M102 1178l283 280v-729h-59v594l-185 -184zM330 0l534 1458h62l-533 -1458h-63zM653 133l396 596h63v-729h-59v133h-400zM762 190h291v433z" />
<glyph unicode="&#xbd;" horiz-adv-x="1431" d="M102 1178l283 280v-729h-59v594l-185 -184zM324 0l534 1458h62l-533 -1458h-63zM784 0v51q0 72 36 115t88.5 69.5t114.5 43t114.5 38t88.5 54t36 90.5q0 88 -49.5 149.5t-161.5 61.5q-90 0 -149.5 -60.5t-59.5 -150.5h-58q2 55 23.5 104t56.5 86t83 57.5t104 20.5 q68 0 118 -21.5t83.5 -57.5t50 -85t16.5 -104q0 -76 -35 -118t-88 -65.5t-114.5 -38t-115 -34t-88 -53t-34.5 -97.5h485v-55h-545z" />
<glyph unicode="&#xbe;" horiz-adv-x="1372" d="M102 973h60q0 -43 16.5 -83t46 -68.5t68.5 -46t84 -17.5q43 0 82 17.5t67.5 47t45 68.5t16.5 82q0 70 -26.5 107.5t-72 54t-106.5 19.5t-131 3v57h244q39 0 65.5 28t26.5 65q0 39 -26.5 67.5t-65.5 28.5h-365v55h365q63 0 107 -44t44 -107q0 -35 -12 -59.5t-27.5 -40 t-30 -22.5t-16.5 -7q2 0 15.5 -10.5t29 -33t28.5 -61.5t13 -100q0 -55 -21.5 -105.5t-58.5 -87.5t-87 -58.5t-105 -21.5t-104.5 21.5t-87.5 58.5t-59.5 87.5t-21.5 105.5zM475 0l535 1458h61l-532 -1458h-64zM811 133l395 596h64v-729h-60v133h-399zM920 190h290v433z" />
<glyph unicode="&#xbf;" horiz-adv-x="761" d="M102 -221v622q0 55 19.5 103.5t52.5 85.5t78 60.5t98 29.5v100h60v-157q-55 0 -101.5 -17.5t-79 -48.5t-50 -71t-17.5 -85v-622q0 -45 17.5 -85t47 -71t69.5 -48t85 -17t85 17t69.5 48t47 71t17.5 85h59q0 -57 -21.5 -108.5t-59 -89.5t-89 -59.5t-108.5 -21.5 t-108.5 21.5t-89.5 59.5t-59.5 89t-21.5 109zM334 942q0 16 14 30.5t35 14.5q16 0 30.5 -14.5t14.5 -30.5q0 -20 -14.5 -34.5t-30.5 -14.5q-20 0 -34.5 14.5t-14.5 34.5z" />
<glyph unicode="&#xc0;" horiz-adv-x="751" d="M104 0v1214q0 57 21.5 106.5t58.5 86.5t87.5 58.5t105.5 21.5t105 -21.5t87 -58.5t58.5 -86t21.5 -107v-1214h-59v244h-426v-244h-60zM164 301h426v913q0 45 -16.5 84t-46 68t-68.5 46.5t-82 17.5q-45 0 -84 -17.5t-67.5 -46.5t-45 -67.5t-16.5 -84.5v-913zM236 1898h61 l113 -301h-64z" />
<glyph unicode="&#xc1;" d="M102 0v1214q0 57 21.5 106.5t58.5 86.5t87.5 58.5t105.5 21.5t105 -21.5t87 -58.5t58.5 -86t21.5 -107v-1214h-59v244h-426v-244h-60zM162 301h426v913q0 45 -16.5 84t-46 68t-68.5 46.5t-82 17.5q-45 0 -84 -17.5t-67.5 -46.5t-45 -67.5t-16.5 -84.5v-913zM340 1597 l113 301h61l-111 -301h-63z" />
<glyph unicode="&#xc2;" d="M96 1597l246 293h76l242 -293h-76l-205 248l-205 -248h-78zM102 0v1214q0 57 21.5 106.5t58.5 86.5t87.5 58.5t105.5 21.5t105 -21.5t87 -58.5t58.5 -86t21.5 -107v-1214h-59v244h-426v-244h-60zM162 301h426v913q0 45 -16.5 84t-46 68t-68.5 46.5t-82 17.5 q-45 0 -84 -17.5t-67.5 -46.5t-45 -67.5t-16.5 -84.5v-913z" />
<glyph unicode="&#xc3;" d="M102 0v1214q0 57 21.5 106.5t58.5 86.5t87.5 58.5t105.5 21.5t105 -21.5t87 -58.5t58.5 -86t21.5 -107v-1214h-59v244h-426v-244h-60zM162 301h426v913q0 45 -16.5 84t-46 68t-68.5 46.5t-82 17.5q-45 0 -84 -17.5t-67.5 -46.5t-45 -67.5t-16.5 -84.5v-913zM180 1640 q14 18 33 35q16 12 35.5 23.5t46.5 11.5q29 0 49.5 -9t38.5 -19.5t35.5 -19.5t40.5 -9q14 0 27.5 5t23.5 11q12 8 22 17l39 -19q-16 -20 -34 -37q-16 -14 -35.5 -24.5t-42.5 -10.5t-43.5 9.5t-39 20.5t-39 20.5t-42.5 9.5q-16 0 -27.5 -6.5t-21.5 -12.5q-10 -8 -21 -16z" />
<glyph unicode="&#xc4;" d="M102 0v1214q0 57 21.5 106.5t58.5 86.5t87.5 58.5t105.5 21.5t105 -21.5t87 -58.5t58.5 -86t21.5 -107v-1214h-59v244h-426v-244h-60zM162 301h426v913q0 45 -16.5 84t-46 68t-68.5 46.5t-82 17.5q-45 0 -84 -17.5t-67.5 -46.5t-45 -67.5t-16.5 -84.5v-913zM211 1642 q0 20 14.5 35t32.5 15q20 0 32.5 -14.5t12.5 -35.5q0 -16 -12.5 -30.5t-32.5 -14.5q-18 0 -32.5 14.5t-14.5 30.5zM444 1642q0 20 14.5 35t35.5 15q16 0 30.5 -14.5t14.5 -35.5q0 -16 -14.5 -30.5t-30.5 -14.5q-20 0 -35 14.5t-15 30.5z" />
<glyph unicode="&#xc5;" d="M102 0v1214q0 86 47.5 155t122.5 97q-55 49 -55 123q0 66 46 112t112 46t111.5 -46t45.5 -112q0 -37 -15 -68.5t-42 -54.5q76 -29 124 -97.5t48 -154.5v-1214h-59v244h-426v-244h-60zM162 301h426v913q0 43 -16.5 83t-45 69t-67.5 46.5t-84 17.5q-43 0 -82 -17.5 t-68.5 -46.5t-46 -69t-16.5 -83v-913zM274 1589q0 -41 28 -69.5t73 -32.5q41 0 71.5 30.5t30.5 71.5t-30.5 71t-71.5 30t-71 -30t-30 -71z" />
<glyph unicode="&#xc6;" horiz-adv-x="972" d="M102 0v1214q0 57 21.5 106.5t58.5 86.5t87 58.5t106 21.5h379v-57h-320v-1129h203v-57h-203v-189h436v-55h-495v244h-213v-244h-60zM162 301h213v1129q-45 0 -84 -17.5t-67.5 -46.5t-45 -67.5t-16.5 -84.5v-913z" />
<glyph unicode="&#xc7;" d="M102 244v970q0 57 21.5 106.5t58.5 86.5t87 58.5t106 21.5q57 0 106 -21.5t86 -58.5t58.5 -86t21.5 -107h-59q0 45 -16.5 84t-45 68t-67.5 46.5t-84 17.5q-43 0 -82 -17.5t-68.5 -46.5t-46 -67.5t-16.5 -84.5v-970q0 -45 16.5 -84t46 -69t68.5 -46t82 -16q45 0 84 16 t67.5 46t45 69t16.5 84h59q0 -53 -18.5 -99.5t-51 -82t-75.5 -59t-94 -30.5l-109 -299h-92l139 299q-51 4 -96 27t-78 59.5t-51.5 83.5t-18.5 101z" />
<glyph unicode="&#xc8;" horiz-adv-x="700" d="M102 0v1458h379v-55h-319v-1102h203v-57h-203v-189h436v-55h-496zM152 1898h61l113 -301h-64z" />
<glyph unicode="&#xc9;" horiz-adv-x="700" d="M102 0v1458h379v-55h-319v-1102h203v-57h-203v-189h436v-55h-496zM254 1597l113 301h61l-111 -301h-63z" />
<glyph unicode="&#xca;" horiz-adv-x="700" d="M71 1597l246 293h76l242 -293h-76l-205 248l-205 -248h-78zM102 0v1458h379v-55h-319v-1102h203v-57h-203v-189h436v-55h-496z" />
<glyph unicode="&#xcb;" horiz-adv-x="700" d="M102 0v1458h379v-55h-319v-1102h203v-57h-203v-189h436v-55h-496zM127 1642q0 20 14.5 35t32.5 15q20 0 32.5 -14.5t12.5 -35.5q0 -16 -12.5 -30.5t-32.5 -14.5q-18 0 -32.5 14.5t-14.5 30.5zM360 1642q0 20 14.5 35t35.5 15q16 0 30.5 -14.5t14.5 -35.5 q0 -16 -14.5 -30.5t-30.5 -14.5q-20 0 -35 14.5t-15 30.5z" />
<glyph unicode="&#xcc;" horiz-adv-x="266" d="M-10 1898h61l113 -301h-64zM104 0v1458h60v-1458h-60z" />
<glyph unicode="&#xcd;" horiz-adv-x="264" d="M98 1597l113 301h61l-110 -301h-64zM102 0v1458h60v-1458h-60z" />
<glyph unicode="&#xce;" horiz-adv-x="264" d="M-148 1597l246 293h76l242 -293h-76l-205 248l-205 -248h-78zM102 0v1458h60v-1458h-60z" />
<glyph unicode="&#xcf;" horiz-adv-x="299" d="M-16 1642q0 20 14 35t33 15q20 0 32.5 -14.5t12.5 -35.5q0 -16 -12.5 -30.5t-32.5 -14.5q-18 0 -32.5 14.5t-14.5 30.5zM119 0v1458h59v-1458h-59zM217 1642q0 20 14.5 35t34.5 15q16 0 30.5 -14.5t14.5 -35.5q0 -16 -14.5 -30.5t-30.5 -14.5q-20 0 -34.5 14.5 t-14.5 30.5z" />
<glyph unicode="&#xd0;" horiz-adv-x="966" d="M102 700v58h240v700h260q55 0 102.5 -20.5t83 -56t56 -83t20.5 -102.5v-934q0 -55 -20.5 -102t-56 -83t-83 -56.5t-102.5 -20.5h-260v700h-240zM401 55h201q43 0 81 16.5t65.5 44t44 65.5t16.5 81v934q0 43 -16.5 81t-44 65.5t-65.5 44t-81 16.5h-201v-645h248v-58h-248 v-645z" />
<glyph unicode="&#xd1;" d="M102 0v1458h60l426 -1274v1274h59v-1458h-59l-426 1278v-1278h-60zM176 1642q14 18 33 35q16 12 35.5 23.5t46.5 11.5q29 0 49 -9t38.5 -19.5t36 -19.5t40.5 -9q14 0 27.5 5t23.5 11q12 8 22 17l39 -19q-16 -20 -35 -37q-16 -14 -35 -24.5t-42 -10.5t-43.5 9.5t-39 20.5 t-39 20.5t-42.5 9.5q-16 0 -27.5 -6t-21.5 -13q-10 -8 -21 -16z" />
<glyph unicode="&#xd2;" d="M102 244v970q0 55 21.5 105.5t58.5 87.5t87 58.5t106 21.5q55 0 105 -21.5t87 -58.5t58.5 -87t21.5 -106v-970q0 -55 -21.5 -105.5t-58.5 -87.5t-87 -58.5t-105 -21.5t-105.5 21.5t-87.5 58.5t-58.5 87t-21.5 106zM162 242q0 -43 16.5 -82t46 -69t68.5 -46t82 -16 q45 0 84 16t67.5 46t45 69t16.5 82v975q0 43 -16.5 81.5t-45 68.5t-67.5 46.5t-84 16.5q-43 0 -82 -16.5t-68.5 -46.5t-46 -68.5t-16.5 -81.5v-975zM236 1898h61l113 -301h-64z" />
<glyph unicode="&#xd3;" d="M102 244v970q0 55 21.5 105.5t58.5 87.5t87 58.5t106 21.5q55 0 105 -21.5t87 -58.5t58.5 -87t21.5 -106v-970q0 -55 -21.5 -105.5t-58.5 -87.5t-87 -58.5t-105 -21.5t-105.5 21.5t-87.5 58.5t-58.5 87t-21.5 106zM162 242q0 -43 16.5 -82t46 -69t68.5 -46t82 -16 q45 0 84 16t67.5 46t45 69t16.5 82v975q0 43 -16.5 81.5t-45 68.5t-67.5 46.5t-84 16.5q-43 0 -82 -16.5t-68.5 -46.5t-46 -68.5t-16.5 -81.5v-975zM340 1597l113 301h61l-111 -301h-63z" />
<glyph unicode="&#xd4;" d="M96 1597l246 293h76l242 -293h-76l-205 248l-205 -248h-78zM102 244v970q0 55 21.5 105.5t58.5 87.5t87 58.5t106 21.5q55 0 105 -21.5t87 -58.5t58.5 -87t21.5 -106v-970q0 -55 -21.5 -105.5t-58.5 -87.5t-87 -58.5t-105 -21.5t-105.5 21.5t-87.5 58.5t-58.5 87 t-21.5 106zM162 242q0 -43 16.5 -82t46 -69t68.5 -46t82 -16q45 0 84 16t67.5 46t45 69t16.5 82v975q0 43 -16.5 81.5t-45 68.5t-67.5 46.5t-84 16.5q-43 0 -82 -16.5t-68.5 -46.5t-46 -68.5t-16.5 -81.5v-975z" />
<glyph unicode="&#xd5;" d="M102 244v970q0 55 21.5 105.5t58.5 87.5t87 58.5t106 21.5q55 0 105 -21.5t87 -58.5t58.5 -87t21.5 -106v-970q0 -55 -21.5 -105.5t-58.5 -87.5t-87 -58.5t-105 -21.5t-105.5 21.5t-87.5 58.5t-58.5 87t-21.5 106zM162 242q0 -43 16.5 -82t46 -69t68.5 -46t82 -16 q45 0 84 16t67.5 46t45 69t16.5 82v975q0 43 -16.5 81.5t-45 68.5t-67.5 46.5t-84 16.5q-43 0 -82 -16.5t-68.5 -46.5t-46 -68.5t-16.5 -81.5v-975zM180 1642q14 18 33 35q16 12 35.5 23.5t46.5 11.5q29 0 49.5 -9t38.5 -19.5t35.5 -19.5t40.5 -9q14 0 27.5 5t23.5 11 q12 8 22 17l39 -19q-16 -20 -34 -37q-16 -14 -35.5 -24.5t-42.5 -10.5t-43.5 9.5t-39 20.5t-39 20.5t-42.5 9.5q-16 0 -27.5 -6t-21.5 -13q-10 -8 -21 -16z" />
<glyph unicode="&#xd6;" d="M102 244v970q0 55 21.5 105.5t58.5 87.5t87 58.5t106 21.5q55 0 105 -21.5t87 -58.5t58.5 -87t21.5 -106v-970q0 -55 -21.5 -105.5t-58.5 -87.5t-87 -58.5t-105 -21.5t-105.5 21.5t-87.5 58.5t-58.5 87t-21.5 106zM162 242q0 -43 16.5 -82t46 -69t68.5 -46t82 -16 q45 0 84 16t67.5 46t45 69t16.5 82v975q0 43 -16.5 81.5t-45 68.5t-67.5 46.5t-84 16.5q-43 0 -82 -16.5t-68.5 -46.5t-46 -68.5t-16.5 -81.5v-975zM211 1642q0 20 14.5 35t32.5 15q20 0 32.5 -14.5t12.5 -35.5q0 -16 -12.5 -30.5t-32.5 -14.5q-18 0 -32.5 14.5t-14.5 30.5z M444 1642q0 20 14.5 35t35.5 15q16 0 30.5 -14.5t14.5 -35.5q0 -16 -14.5 -30.5t-30.5 -14.5q-20 0 -35 14.5t-15 30.5z" />
<glyph unicode="&#xd7;" horiz-adv-x="628" d="M100 387l174 174l-172 172l41 39l172 -170l170 172l41 -41l-172 -172l176 -174l-41 -41l-176 174l-174 -174z" />
<glyph unicode="&#xd8;" horiz-adv-x="800" d="M102 0l48 131q-23 55 -23 113v970q0 55 21.5 105.5t58.5 87.5t87 58.5t105 21.5q63 0 117.5 -26.5t91.5 -74.5l27 72h63l-49 -135q23 -51 23 -109v-970q0 -55 -21.5 -105.5t-58.5 -87.5t-87 -58.5t-106 -21.5q-63 0 -117.5 27t-93.5 72l-24 -70h-62zM186 229l398 1092 q-29 47 -77.5 78t-107.5 31q-43 0 -81.5 -16.5t-68.5 -46.5t-46.5 -68.5t-16.5 -81.5v-988zM213 137q29 -49 78 -78.5t108 -29.5q45 0 84 16t68 46t45 69t16 82v981z" />
<glyph unicode="&#xd9;" d="M102 244v1214h60v-1214q0 -45 16.5 -84t45 -69t67.5 -46t84 -16t84 16t67.5 46t45 69t16.5 84v1214h59v-1214q0 -57 -21.5 -106.5t-58.5 -86.5t-87 -58.5t-105 -21.5t-105.5 21.5t-87.5 58.5t-58.5 86t-21.5 107zM229 1898h62l112 -301h-63z" />
<glyph unicode="&#xda;" d="M102 244v1214h60v-1214q0 -45 16.5 -84t45 -69t67.5 -46t84 -16t84 16t67.5 46t45 69t16.5 84v1214h59v-1214q0 -57 -21.5 -106.5t-58.5 -86.5t-87 -58.5t-105 -21.5t-105.5 21.5t-87.5 58.5t-58.5 86t-21.5 107zM340 1597l113 301h61l-111 -301h-63z" />
<glyph unicode="&#xdb;" d="M96 1597l246 293h76l242 -293h-76l-205 248l-205 -248h-78zM102 244v1214h60v-1214q0 -45 16.5 -84t45 -69t67.5 -46t84 -16t84 16t67.5 46t45 69t16.5 84v1214h59v-1214q0 -57 -21.5 -106.5t-58.5 -86.5t-87 -58.5t-105 -21.5t-105.5 21.5t-87.5 58.5t-58.5 86 t-21.5 107z" />
<glyph unicode="&#xdc;" d="M102 244v1214h60v-1214q0 -45 16.5 -84t45 -69t67.5 -46t84 -16t84 16t67.5 46t45 69t16.5 84v1214h59v-1214q0 -57 -21.5 -106.5t-58.5 -86.5t-87 -58.5t-105 -21.5t-105.5 21.5t-87.5 58.5t-58.5 86t-21.5 107zM211 1642q0 20 14.5 35t32.5 15q20 0 32.5 -14.5 t12.5 -35.5q0 -16 -12.5 -30.5t-32.5 -14.5q-18 0 -32.5 14.5t-14.5 30.5zM444 1642q0 20 14.5 35t35.5 15q16 0 30.5 -14.5t14.5 -35.5q0 -16 -14.5 -30.5t-30.5 -14.5q-20 0 -35 14.5t-15 30.5z" />
<glyph unicode="&#xdd;" d="M102 1458h60l213 -1067l213 1067h59l-244 -1218v-240h-57v240zM342 1597l113 301h61l-110 -301h-64z" />
<glyph unicode="&#xde;" d="M102 0v1458h60v-244h213q55 0 105 -21.5t87 -58t58.5 -86t21.5 -106.5v-426q0 -57 -21.5 -106.5t-58.5 -86t-87 -58t-105 -21.5h-213v-244h-60zM162 301h213q43 0 82 16.5t68.5 46t46 68.5t16.5 84v426q0 45 -16.5 84t-46 67.5t-68.5 46t-82 17.5h-213v-856z" />
<glyph unicode="&#xdf;" d="M102 0v1458h273q57 0 106 -21.5t86 -58.5t58.5 -87t21.5 -105v-670q0 -68 -29.5 -125t-80.5 -94q47 -14 78.5 -54t31.5 -91q0 -63 -44 -107.5t-105 -44.5h-123v55h121q37 0 64.5 29t27.5 68q0 37 -28 64.5t-64 27.5h-121v57q45 0 84 16.5t67.5 46t45 68.5t16.5 84v670 q0 45 -16.5 84t-45 68.5t-67.5 47t-84 17.5h-213v-1403h-60z" />
<glyph unicode="&#xe0;" horiz-adv-x="757" d="M102 246v174q0 57 21.5 107.5t59.5 88t88.5 59t107.5 21.5q66 0 122 -28.5t95 -77.5v168q0 37 -19.5 73.5t-50 64.5t-69.5 45t-78 17h-176v58h176q57 0 107.5 -21.5t88 -59.5t59 -88t21.5 -108v-739h-59v76q-39 -47 -95.5 -76t-121.5 -29q-57 0 -107.5 21.5t-88.5 58.5 t-59.5 87t-21.5 108zM162 246q0 -45 17.5 -84t46 -69t68.5 -47t85 -17t84 17t68.5 47t47 69t17.5 84v174q0 45 -17.5 85t-47 69.5t-68.5 47t-84 17.5t-85 -17.5t-68.5 -47t-46 -69.5t-17.5 -85v-174zM240 1458h61l113 -303h-64z" />
<glyph unicode="&#xe1;" horiz-adv-x="757" d="M102 246v174q0 57 21.5 107.5t59.5 88t88.5 59t107.5 21.5q66 0 122 -28.5t95 -77.5v168q0 37 -19.5 73.5t-50 64.5t-69.5 45t-78 17h-176v58h176q57 0 107.5 -21.5t88 -59.5t59 -88t21.5 -108v-739h-59v76q-39 -47 -95.5 -76t-121.5 -29q-57 0 -107.5 21.5t-88.5 58.5 t-59.5 87t-21.5 108zM162 246q0 -45 17.5 -84t46 -69t68.5 -47t85 -17t84 17t68.5 47t47 69t17.5 84v174q0 45 -17.5 85t-47 69.5t-68.5 47t-84 17.5t-85 -17.5t-68.5 -47t-46 -69.5t-17.5 -85v-174zM342 1155l113 303h61l-110 -303h-64z" />
<glyph unicode="&#xe2;" horiz-adv-x="757" d="M96 1155l246 293h76l241 -293h-75l-205 248l-205 -248h-78zM102 246v174q0 57 21.5 107.5t59.5 88t88.5 59t107.5 21.5q66 0 122 -28.5t95 -77.5v168q0 37 -19.5 73.5t-50 64.5t-69.5 45t-78 17h-176v58h176q57 0 107.5 -21.5t88 -59.5t59 -88t21.5 -108v-739h-59v76 q-39 -47 -95.5 -76t-121.5 -29q-57 0 -107.5 21.5t-88.5 58.5t-59.5 87t-21.5 108zM162 246q0 -45 17.5 -84t46 -69t68.5 -47t85 -17t84 17t68.5 47t47 69t17.5 84v174q0 45 -17.5 85t-47 69.5t-68.5 47t-84 17.5t-85 -17.5t-68.5 -47t-46 -69.5t-17.5 -85v-174z" />
<glyph unicode="&#xe3;" horiz-adv-x="757" d="M102 246v174q0 57 21.5 107.5t59.5 88t88.5 59t107.5 21.5q66 0 122 -28.5t95 -77.5v168q0 37 -19.5 73.5t-50 64.5t-69.5 45t-78 17h-176v58h176q57 0 107.5 -21.5t88 -59.5t59 -88t21.5 -108v-739h-59v76q-39 -47 -95.5 -76t-121.5 -29q-57 0 -107.5 21.5t-88.5 58.5 t-59.5 87t-21.5 108zM162 246q0 -45 17.5 -84t46 -69t68.5 -47t85 -17t84 17t68.5 47t47 69t17.5 84v174q0 45 -17.5 85t-47 69.5t-68.5 47t-84 17.5t-85 -17.5t-68.5 -47t-46 -69.5t-17.5 -85v-174zM184 1200q14 18 33 35q16 12 35.5 23.5t46.5 11.5q29 0 49.5 -9.5 t39 -19.5t35.5 -19.5t40 -9.5q14 0 27.5 5.5t23.5 11.5q12 8 23 16l38 -18q-16 -20 -34 -37q-16 -14 -35.5 -24.5t-42.5 -10.5t-43.5 9.5t-39 20.5t-38.5 20t-43 9q-16 0 -27.5 -6t-21.5 -12q-10 -8 -21 -16z" />
<glyph unicode="&#xe4;" horiz-adv-x="757" d="M102 246v174q0 57 21.5 107.5t59.5 88t88.5 59t107.5 21.5q66 0 122 -28.5t95 -77.5v168q0 37 -19.5 73.5t-50 64.5t-69.5 45t-78 17h-176v58h176q57 0 107.5 -21.5t88 -59.5t59 -88t21.5 -108v-739h-59v76q-39 -47 -95.5 -76t-121.5 -29q-57 0 -107.5 21.5t-88.5 58.5 t-59.5 87t-21.5 108zM162 246q0 -45 17.5 -84t46 -69t68.5 -47t85 -17t84 17t68.5 47t47 69t17.5 84v174q0 45 -17.5 85t-47 69.5t-68.5 47t-84 17.5t-85 -17.5t-68.5 -47t-46 -69.5t-17.5 -85v-174zM215 1202q0 20 14.5 34.5t32.5 14.5q20 0 32.5 -14t12.5 -35 q0 -16 -12.5 -30.5t-32.5 -14.5q-18 0 -32.5 14.5t-14.5 30.5zM449 1202q0 20 14 34.5t35 14.5q16 0 30.5 -14t14.5 -35q0 -16 -14.5 -30.5t-30.5 -14.5q-20 0 -34.5 14.5t-14.5 30.5z" />
<glyph unicode="&#xe5;" horiz-adv-x="757" d="M102 246v174q0 57 21.5 107.5t59.5 88t88.5 59t107.5 21.5q66 0 122 -28.5t95 -77.5v168q0 37 -19.5 73.5t-50 64.5t-69.5 45t-78 17h-176v58h176q57 0 107.5 -21.5t88 -59.5t59 -88t21.5 -108v-739h-59v76q-39 -47 -95.5 -76t-121.5 -29q-57 0 -107.5 21.5t-88.5 58.5 t-59.5 87t-21.5 108zM162 246q0 -45 17.5 -84t46 -69t68.5 -47t85 -17t84 17t68.5 47t47 69t17.5 84v174q0 45 -17.5 85t-47 69.5t-68.5 47t-84 17.5t-85 -17.5t-68.5 -47t-46 -69.5t-17.5 -85v-174zM225 1315q0 66 46 112t112 46t112 -46.5t46 -111.5q0 -66 -46 -113 t-112 -47q-33 0 -61.5 12.5t-50 34t-34 51t-12.5 62.5zM283 1315q0 -41 29.5 -72t70.5 -31t71.5 31t30.5 72t-30.5 70.5t-71.5 29.5t-70.5 -29.5t-29.5 -70.5z" />
<glyph unicode="&#xe6;" horiz-adv-x="1251" d="M102 246v174q0 57 21.5 107.5t59.5 88t88.5 59t107.5 21.5q66 0 122 -28.5t95 -77.5v168q0 37 -19.5 73.5t-50 64.5t-69.5 45t-78 17h-176v58h176q82 0 146.5 -42t99.5 -110q35 68 100.5 110t146.5 42q57 0 107.5 -21.5t88.5 -59.5t59.5 -88t21.5 -108v-495h-492 q6 -39 24.5 -74t47.5 -60.5t65.5 -40t77.5 -14.5h246v-55h-246q-66 0 -123 28.5t-94 75.5v-104h-59v76q-39 -47 -95.5 -76t-121.5 -29q-57 0 -107.5 21.5t-88.5 58.5t-59.5 87t-21.5 108zM162 246q0 -45 17.5 -84t46 -69t68.5 -47t85 -17t84 17t68.5 47t47 69t17.5 84v174 q0 45 -17.5 85t-47 69.5t-68.5 47t-84 17.5t-85 -17.5t-68.5 -47t-46 -69.5t-17.5 -85v-174zM655 301h435v438q0 45 -17.5 85t-47.5 70t-68.5 47t-84.5 17q-45 0 -84.5 -17t-68.5 -47t-46.5 -70t-17.5 -85v-438z" />
<glyph unicode="&#xe7;" horiz-adv-x="755" d="M102 246v493q0 57 21.5 107.5t58.5 88.5t87 59.5t108 21.5q57 0 107.5 -21.5t88 -59.5t59 -88t21.5 -108h-57q0 45 -17.5 85t-47 70t-69.5 47t-85 17t-84 -17t-68.5 -47t-46 -70t-16.5 -85v-493q0 -45 16.5 -84t46 -69t68.5 -47t84 -17t85 16t69.5 46t47 69t17.5 84h57 q0 -53 -18.5 -99.5t-52 -82t-78.5 -59t-96 -30.5l-109 -299h-92l139 299q-51 6 -96 29t-78 59.5t-51.5 84t-18.5 100.5z" />
<glyph unicode="&#xe8;" horiz-adv-x="757" d="M102 276v463q0 57 21.5 107.5t59.5 88.5t88.5 59.5t107.5 21.5t107.5 -21.5t88 -59.5t59 -88t21.5 -108v-495h-491q6 -39 24.5 -74t47 -60.5t65.5 -40t78 -14.5h246v-55h-246q-57 0 -107.5 21.5t-88.5 59.5t-59.5 88t-21.5 107zM162 301h434v438q0 45 -17.5 85t-47 70 t-68.5 47t-84 17t-85 -17t-68.5 -47t-46 -70t-17.5 -85v-438zM238 1456h61l113 -301h-64z" />
<glyph unicode="&#xe9;" horiz-adv-x="757" d="M102 276v463q0 57 21.5 107.5t59.5 88.5t88.5 59.5t107.5 21.5t107.5 -21.5t88 -59.5t59 -88t21.5 -108v-495h-491q6 -39 24.5 -74t47 -60.5t65.5 -40t78 -14.5h246v-55h-246q-57 0 -107.5 21.5t-88.5 59.5t-59.5 88t-21.5 107zM162 301h434v438q0 45 -17.5 85t-47 70 t-68.5 47t-84 17t-85 -17t-68.5 -47t-46 -70t-17.5 -85v-438zM344 1155l113 303h61l-110 -303h-64z" />
<glyph unicode="&#xea;" horiz-adv-x="757" d="M96 1155l246 295h76l241 -295h-75l-205 250l-205 -250h-78zM102 276v463q0 57 21.5 107.5t59.5 88.5t88.5 59.5t107.5 21.5t107.5 -21.5t88 -59.5t59 -88t21.5 -108v-495h-491q6 -39 24.5 -74t47 -60.5t65.5 -40t78 -14.5h246v-55h-246q-57 0 -107.5 21.5t-88.5 59.5 t-59.5 88t-21.5 107zM162 301h434v438q0 45 -17.5 85t-47 70t-68.5 47t-84 17t-85 -17t-68.5 -47t-46 -70t-17.5 -85v-438z" />
<glyph unicode="&#xeb;" horiz-adv-x="757" d="M102 276v463q0 57 21.5 107.5t59.5 88.5t88.5 59.5t107.5 21.5t107.5 -21.5t88 -59.5t59 -88t21.5 -108v-495h-491q6 -39 24.5 -74t47 -60.5t65.5 -40t78 -14.5h246v-55h-246q-57 0 -107.5 21.5t-88.5 59.5t-59.5 88t-21.5 107zM162 301h434v438q0 45 -17.5 85t-47 70 t-68.5 47t-84 17t-85 -17t-68.5 -47t-46 -70t-17.5 -85v-438zM215 1200q0 20 14.5 34.5t32.5 14.5q20 0 32.5 -14t12.5 -35q0 -16 -12.5 -30.5t-32.5 -14.5q-18 0 -32.5 14.5t-14.5 30.5zM449 1200q0 20 14 34.5t35 14.5q16 0 30.5 -14t14.5 -35q0 -16 -14.5 -30.5 t-30.5 -14.5q-20 0 -34.5 14.5t-14.5 30.5z" />
<glyph unicode="&#xec;" horiz-adv-x="264" d="M-12 1458h61l113 -303h-64zM102 0v987h60v-987h-60z" />
<glyph unicode="&#xed;" horiz-adv-x="264" d="M98 1155l113 303h61l-110 -303h-64zM102 0v987h60v-987h-60z" />
<glyph unicode="&#xee;" horiz-adv-x="311" d="M-131 1155l246 295h75l242 -295h-76l-204 250l-205 -250h-78zM121 0v987h59v-987h-59z" />
<glyph unicode="&#xef;" horiz-adv-x="290" d="M-12 1202q0 20 14 34.5t33 14.5q20 0 32.5 -14t12.5 -35q0 -16 -12.5 -30.5t-32.5 -14.5q-18 0 -32.5 14.5t-14.5 30.5zM125 0v987h59v-987h-59zM221 1202q0 20 14.5 34.5t34.5 14.5q16 0 30.5 -14t14.5 -35q0 -16 -14.5 -30.5t-30.5 -14.5q-20 0 -34.5 14.5t-14.5 30.5z " />
<glyph unicode="&#xf0;" horiz-adv-x="1253" d="M102 494q0 104 40 200.5t114 169.5q76 74 171 113t200 39q119 0 223 -49l-227 295l-172 -226l-41 39l178 234l-176 231l41 39l170 -225l172 225l41 -41l-177 -229l357 -465q66 -72 100.5 -162t34.5 -188q0 -104 -40 -199.5t-114 -171.5q-74 -74 -170 -113t-200 -39 t-199.5 39t-171.5 113q-74 76 -114 171t-40 200zM162 494q0 -96 37 -181.5t99 -148t147 -99t182 -36.5q96 0 181 36.5t147.5 99t99.5 147.5t37 182q0 96 -37 181t-99.5 147.5t-147.5 99t-181 36.5t-181.5 -36.5t-147.5 -99t-99 -147.5t-37 -181z" />
<glyph unicode="&#xf1;" horiz-adv-x="757" d="M102 0v987h60v-78q39 47 95 77t122 30q57 0 107.5 -21.5t88 -58.5t59 -87t21.5 -108v-741h-59v741q0 45 -17.5 84t-46 69t-68.5 47t-85 17t-84 -17t-68.5 -47t-47 -69t-17.5 -84v-741h-60zM186 1200q14 18 33 35q16 12 35.5 23.5t46.5 11.5q29 0 49.5 -9.5t39 -19.5 t35.5 -19.5t40 -9.5q14 0 27.5 5.5t23.5 11.5q12 8 23 16l39 -18q-16 -20 -35 -37q-16 -14 -35.5 -24.5t-42.5 -10.5t-43.5 9.5t-38.5 20.5t-38.5 20t-43.5 9q-16 0 -27.5 -6t-21.5 -12q-10 -8 -21 -16z" />
<glyph unicode="&#xf2;" d="M102 244v499q0 55 21.5 105.5t58.5 87.5t87 58.5t106 21.5q55 0 105 -21.5t87 -58.5t58.5 -87t21.5 -106v-499q0 -55 -21.5 -105.5t-58.5 -87.5t-87 -58.5t-105 -21.5t-105.5 21.5t-87.5 58.5t-58.5 87t-21.5 106zM162 242q0 -43 16.5 -82t46 -69t68.5 -46t82 -16 q45 0 84 16t67.5 46t45 69t16.5 82v503q0 43 -16.5 82t-45 69t-67.5 46t-84 16q-43 0 -82 -16t-68.5 -46t-46 -69t-16.5 -82v-503zM240 1458h61l113 -303h-64z" />
<glyph unicode="&#xf3;" d="M102 244v499q0 55 21.5 105.5t58.5 87.5t87 58.5t106 21.5q55 0 105 -21.5t87 -58.5t58.5 -87t21.5 -106v-499q0 -55 -21.5 -105.5t-58.5 -87.5t-87 -58.5t-105 -21.5t-105.5 21.5t-87.5 58.5t-58.5 87t-21.5 106zM162 242q0 -43 16.5 -82t46 -69t68.5 -46t82 -16 q45 0 84 16t67.5 46t45 69t16.5 82v503q0 43 -16.5 82t-45 69t-67.5 46t-84 16q-43 0 -82 -16t-68.5 -46t-46 -69t-16.5 -82v-503zM340 1155l113 303h61l-111 -303h-63z" />
<glyph unicode="&#xf4;" d="M96 1155l246 293h76l241 -293h-75l-205 248l-205 -248h-78zM102 244v499q0 55 21.5 105.5t58.5 87.5t87 58.5t106 21.5q55 0 105 -21.5t87 -58.5t58.5 -87t21.5 -106v-499q0 -55 -21.5 -105.5t-58.5 -87.5t-87 -58.5t-105 -21.5t-105.5 21.5t-87.5 58.5t-58.5 87 t-21.5 106zM162 242q0 -43 16.5 -82t46 -69t68.5 -46t82 -16q45 0 84 16t67.5 46t45 69t16.5 82v503q0 43 -16.5 82t-45 69t-67.5 46t-84 16q-43 0 -82 -16t-68.5 -46t-46 -69t-16.5 -82v-503z" />
<glyph unicode="&#xf5;" d="M102 244v499q0 55 21.5 105.5t58.5 87.5t87 58.5t106 21.5q55 0 105 -21.5t87 -58.5t58.5 -87t21.5 -106v-499q0 -55 -21.5 -105.5t-58.5 -87.5t-87 -58.5t-105 -21.5t-105.5 21.5t-87.5 58.5t-58.5 87t-21.5 106zM162 242q0 -43 16.5 -82t46 -69t68.5 -46t82 -16 q45 0 84 16t67.5 46t45 69t16.5 82v503q0 43 -16.5 82t-45 69t-67.5 46t-84 16q-43 0 -82 -16t-68.5 -46t-46 -69t-16.5 -82v-503zM182 1200q14 18 33 35q16 12 35.5 23.5t46.5 11.5q29 0 49.5 -9.5t38.5 -19.5t35.5 -19.5t40.5 -9.5q14 0 27.5 5.5t23.5 11.5q12 8 23 16 l38 -18q-16 -20 -34 -37q-16 -14 -35.5 -24.5t-42.5 -10.5t-43.5 9.5t-39 20.5t-39 20t-42.5 9q-16 0 -27.5 -6t-21.5 -12q-10 -8 -21 -16z" />
<glyph unicode="&#xf6;" d="M102 244v499q0 55 21.5 105.5t58.5 87.5t87 58.5t106 21.5q55 0 105 -21.5t87 -58.5t58.5 -87t21.5 -106v-499q0 -55 -21.5 -105.5t-58.5 -87.5t-87 -58.5t-105 -21.5t-105.5 21.5t-87.5 58.5t-58.5 87t-21.5 106zM162 242q0 -43 16.5 -82t46 -69t68.5 -46t82 -16 q45 0 84 16t67.5 46t45 69t16.5 82v503q0 43 -16.5 82t-45 69t-67.5 46t-84 16q-43 0 -82 -16t-68.5 -46t-46 -69t-16.5 -82v-503zM211 1200q0 20 14.5 34.5t32.5 14.5q20 0 32.5 -14t12.5 -35q0 -16 -12.5 -30.5t-32.5 -14.5q-18 0 -32.5 14.5t-14.5 30.5zM444 1200 q0 20 14.5 34.5t35.5 14.5q16 0 30.5 -14t14.5 -35q0 -16 -14.5 -30.5t-30.5 -14.5q-20 0 -35 14.5t-15 30.5z" />
<glyph unicode="&#xf7;" horiz-adv-x="751" d="M102 532v58h547v-58h-547zM328 211q0 20 14 34.5t31 14.5q20 0 34.5 -14.5t14.5 -34.5q0 -16 -14.5 -30.5t-34.5 -14.5q-16 0 -30.5 14.5t-14.5 30.5zM328 911q0 18 14 32.5t31 14.5q20 0 34.5 -14t14.5 -33q0 -20 -14.5 -32.5t-34.5 -12.5q-16 0 -30.5 12.5t-14.5 32.5z " />
<glyph unicode="&#xf8;" horiz-adv-x="800" d="M102 987h64l31 -61q39 41 90 64.5t110 23.5q55 0 105.5 -21.5t87.5 -58.5t58.5 -87t21.5 -106v-499q0 -68 -33 -129l61 -113h-61l-35 61q-37 -43 -90 -67.5t-115 -24.5q-55 0 -105 21.5t-87 58.5t-58.5 87t-21.5 106v499q0 74 37 136zM184 240q0 -43 16.5 -82t46 -69 t68.5 -46t82 -16q55 0 100.5 25.5t73.5 66.5l-376 694q-10 -37 -11 -70v-503zM227 870l375 -692q4 16 6 30.5t2 31.5v503q0 43 -16 82t-45 69t-68 46t-84 16q-53 0 -97 -23.5t-73 -62.5z" />
<glyph unicode="&#xf9;" horiz-adv-x="757" d="M102 248v739h60v-739q0 -45 17.5 -85t46 -70t68.5 -47t85 -17t85 17t68.5 47t46 70t17.5 85v739h59v-739q0 -57 -21.5 -107.5t-59 -88.5t-88 -59.5t-107.5 -21.5t-107.5 21.5t-88.5 59.5t-59.5 88t-21.5 108zM246 1458h61l113 -303h-64z" />
<glyph unicode="&#xfa;" horiz-adv-x="757" d="M102 248v739h60v-739q0 -45 17.5 -85t46 -70t68.5 -47t85 -17t85 17t68.5 47t46 70t17.5 85v739h59v-739q0 -57 -21.5 -107.5t-59 -88.5t-88 -59.5t-107.5 -21.5t-107.5 21.5t-88.5 59.5t-59.5 88t-21.5 108zM344 1155l113 303h61l-110 -303h-64z" />
<glyph unicode="&#xfb;" horiz-adv-x="768" d="M100 1155l246 293h76l242 -293h-76l-205 248l-205 -248h-78zM106 248v739h60v-739q0 -45 17.5 -85t46 -70t68.5 -47t85 -17t85 17t68.5 47t46 70t17.5 85v739h59v-739q0 -57 -21.5 -107.5t-59 -88.5t-88 -59.5t-107.5 -21.5t-107.5 21.5t-88 59.5t-59.5 88t-22 108z" />
<glyph unicode="&#xfc;" horiz-adv-x="757" d="M102 248v739h60v-739q0 -45 17.5 -85t46 -70t68.5 -47t85 -17t85 17t68.5 47t46 70t17.5 85v739h59v-739q0 -57 -21.5 -107.5t-59 -88.5t-88 -59.5t-107.5 -21.5t-107.5 21.5t-88.5 59.5t-59.5 88t-21.5 108zM215 1202q0 20 14.5 34.5t32.5 14.5q20 0 32.5 -14t12.5 -35 q0 -16 -12.5 -30.5t-32.5 -14.5q-18 0 -32.5 14.5t-14.5 30.5zM449 1202q0 20 14 34.5t35 14.5q16 0 30.5 -14t14.5 -35q0 -16 -14.5 -30.5t-30.5 -14.5q-20 0 -34.5 14.5t-14.5 30.5z" />
<glyph unicode="&#xfd;" horiz-adv-x="772" d="M102 987h64l221 -883l219 883h64l-254 -987v-524h-60v524zM354 1155l113 301h61l-110 -301h-64z" />
<glyph unicode="&#xfe;" horiz-adv-x="757" d="M102 0v1458h60v-313q39 49 95 77.5t122 28.5q57 0 107.5 -21.5t88 -59t59 -88t21.5 -107.5v-494q0 -57 -21.5 -107t-59 -87t-88 -58.5t-107.5 -21.5q-66 0 -122 28.5t-95 75.5v-311h-60zM162 481q0 -45 17.5 -84t47 -68.5t68.5 -47t84 -17.5t85 17.5t68.5 47t46 68.5 t17.5 84v494q0 45 -17.5 85t-46 69.5t-68.5 47t-85 17.5t-84 -17.5t-68.5 -47t-47 -69.5t-17.5 -85v-494z" />
<glyph unicode="&#xff;" horiz-adv-x="772" d="M102 987h64l221 -883l219 883h64l-254 -987v-524h-60v524zM219 1200q0 20 14.5 34.5t32.5 14.5q20 0 32.5 -14t12.5 -35q0 -16 -12.5 -30.5t-32.5 -14.5q-18 0 -32.5 14.5t-14.5 30.5zM453 1200q0 20 14 34.5t35 14.5q16 0 30.5 -14t14.5 -35q0 -16 -14.5 -30.5 t-30.5 -14.5q-20 0 -34.5 14.5t-14.5 30.5z" />
<glyph unicode="&#x152;" horiz-adv-x="1458" d="M102 729q0 160 63.5 294t168 231.5t242 151.5t284.5 54h379v-57h-319v-1073h202v-58h-202v-215h436v-57h-496q-150 0 -287 58.5t-241.5 157.5t-167 231.5t-62.5 281.5zM162 729q0 -143 60.5 -266t158.5 -214t223 -141.5t256 -50.5v1346q-135 0 -261 -51.5t-223 -141.5 t-155.5 -214t-58.5 -267z" />
<glyph unicode="&#x153;" horiz-adv-x="1243" d="M102 494q0 113 44 202.5t117 154t167.5 99.5t194.5 37h241q55 0 105.5 -22.5t88.5 -59.5t59.5 -87t21.5 -107v-439h-492q6 -39 23.5 -76.5t45 -67.5t62.5 -49.5t76 -21.5h254v-57h-485q-109 4 -204 42t-166 102.5t-112 153.5t-41 196zM162 494q0 -96 35.5 -176t99 -138.5 t148 -90.5t180.5 -32h69q-49 39 -77.5 95.5t-28.5 123.5v435q0 68 28.5 124t77.5 95h-69q-96 0 -180.5 -33t-148 -91t-99 -138t-35.5 -174zM647 330h434v381q0 45 -17 85t-47 69.5t-69 47t-84 17.5t-85 -17.5t-68.5 -47t-46 -69.5t-17.5 -85v-381z" />
<glyph unicode="&#x178;" d="M102 1458h60l213 -1067l213 1067h59l-244 -1218v-240h-57v240zM211 1642q0 20 14.5 35t32.5 15q20 0 32.5 -14.5t12.5 -35.5q0 -16 -12.5 -30.5t-32.5 -14.5q-18 0 -32.5 14.5t-14.5 30.5zM444 1642q0 20 14.5 35t35.5 15q16 0 30.5 -14.5t14.5 -35.5q0 -16 -14.5 -30.5 t-30.5 -14.5q-20 0 -35 14.5t-15 30.5z" />
<glyph unicode="&#x2c6;" horiz-adv-x="768" d="M102 1214l246 293h76l242 -293h-76l-205 248l-205 -248h-78z" />
<glyph unicode="&#x2dc;" horiz-adv-x="595" d="M102 1761q14 18 33 35q16 12 35.5 23.5t46.5 11.5q29 0 49.5 -9.5t39 -19.5t35.5 -19t40 -9q14 0 27.5 5t23.5 11q12 8 23 16l39 -18q-16 -20 -35 -37q-16 -14 -35.5 -24.5t-42.5 -10.5t-43.5 9.5t-38.5 20.5t-38.5 20.5t-43.5 9.5q-16 0 -27.5 -6.5t-21.5 -12.5 q-10 -8 -21 -16z" />
<glyph unicode="&#x2000;" horiz-adv-x="949" />
<glyph unicode="&#x2001;" horiz-adv-x="1898" />
<glyph unicode="&#x2002;" horiz-adv-x="949" />
<glyph unicode="&#x2003;" horiz-adv-x="1898" />
<glyph unicode="&#x2004;" horiz-adv-x="632" />
<glyph unicode="&#x2005;" horiz-adv-x="474" />
<glyph unicode="&#x2006;" horiz-adv-x="316" />
<glyph unicode="&#x2007;" horiz-adv-x="316" />
<glyph unicode="&#x2008;" horiz-adv-x="237" />
<glyph unicode="&#x2009;" horiz-adv-x="379" />
<glyph unicode="&#x200a;" horiz-adv-x="105" />
<glyph unicode="&#x2010;" horiz-adv-x="751" d="M102 532v58h547v-58h-547z" />
<glyph unicode="&#x2011;" horiz-adv-x="751" d="M102 532v58h547v-58h-547z" />
<glyph unicode="&#x2012;" horiz-adv-x="751" d="M102 532v58h547v-58h-547z" />
<glyph unicode="&#x2013;" horiz-adv-x="813" d="M102 700v58h609v-58h-609z" />
<glyph unicode="&#x2014;" horiz-adv-x="1140" d="M102 700v58h936v-58h-936z" />
<glyph unicode="&#x2018;" horiz-adv-x="276" d="M102 1397v90q0 14 8.5 17t18.5 -7l41 -41q0 -2 2 -4v-4q0 -2 2 -2v-49q0 -16 -16 -17h-41q-15 1 -15 17z" />
<glyph unicode="&#x2019;" horiz-adv-x="276" d="M102 1444v49q0 16 17 16h41q14 0 14 -16v-90q0 -14 -8 -17.5t-19 7.5l-41 41q-2 2 -2 4q-2 2 -2 6z" />
<glyph unicode="&#x201a;" horiz-adv-x="278" d="M102 -2q0 16 15 16h41q16 0 16 -16v-49q0 -2 -1 -3t-1 -3q-2 -2 -2 -4l-41 -41q-10 -10 -18.5 -7t-8.5 17v90z" />
<glyph unicode="&#x201c;" horiz-adv-x="407" d="M102 1397v49v2q0 2 2 4q0 2 2 4l41 41q10 10 18.5 7t8.5 -17v-90q0 -16 -14 -17h-41q-16 0 -17 17zM233 1397v49v2q0 2 3 4q0 2 2 4l41 41q10 10 18 7t8 -17v-90q0 -16 -14 -17h-41q-16 0 -17 17z" />
<glyph unicode="&#x201d;" horiz-adv-x="407" d="M102 1444v49q0 16 17 16h41q14 0 14 -16v-90q0 -14 -8 -17.5t-19 7.5l-41 41q-2 2 -2 4q-2 2 -2 6zM233 1444v49q0 16 17 16h41q14 0 14 -16v-90q0 -14 -8 -17.5t-18 7.5l-41 41q-2 2 -2 4q-2 2 -3 6z" />
<glyph unicode="&#x201e;" horiz-adv-x="407" d="M102 -2q0 16 17 16h41q14 0 14 -16v-90q0 -14 -8 -17.5t-19 7.5l-41 41q-2 2 -2 4q-2 2 -2 6v49zM233 -2q0 16 17 16h41q14 0 14 -16v-90q0 -14 -8 -17.5t-18 7.5l-41 41q-2 2 -2 4q-2 2 -3 6v49z" />
<glyph unicode="&#x2022;" horiz-adv-x="499" d="M102 684q0 61 43 104t105 43q61 0 104 -43t43 -104t-43 -104t-104 -43t-104.5 43t-43.5 104z" />
<glyph unicode="&#x2026;" horiz-adv-x="1269" d="M102 45q0 20 14.5 34.5t30.5 14.5q20 0 35 -14t15 -35q0 -16 -14.5 -30.5t-35.5 -14.5q-16 0 -30.5 14.5t-14.5 30.5zM586 45q0 20 14 34.5t31 14.5q20 0 34.5 -14t14.5 -35q0 -16 -14.5 -30.5t-34.5 -14.5q-16 0 -30.5 14.5t-14.5 30.5zM1075 45q0 20 14.5 34.5 t30.5 14.5q20 0 34.5 -14t14.5 -35q0 -16 -14 -30.5t-35 -14.5q-16 0 -30.5 14.5t-14.5 30.5z" />
<glyph unicode="&#x202f;" horiz-adv-x="379" />
<glyph unicode="&#x2039;" horiz-adv-x="620" d="M104 463v57l414 414v-82l-352 -360l352 -359v-82z" />
<glyph unicode="&#x203a;" horiz-adv-x="618" d="M102 51v82l353 359l-353 360v82l414 -414v-57z" />
<glyph unicode="&#x205f;" horiz-adv-x="474" />
<glyph unicode="&#x20ac;" horiz-adv-x="1062" d="M102 498v57h117q-18 82 -18 174q0 94 20 176h-119v58h134q47 137 123.5 235t172 162.5t204 95.5t222.5 33h3v-59h-3q-115 0 -218 -35t-190 -96.5t-151.5 -147.5t-101.5 -188h438v-58h-454q-23 -90 -23 -176q0 -88 23 -174h454v-57h-438q37 -102 101.5 -188.5t151.5 -148 t191.5 -96t219.5 -34.5v-60q-133 2 -248 41t-207 107.5t-161 165t-109 213.5h-134z" />
<glyph unicode="&#x2122;" horiz-adv-x="1574" d="M102 1403v55h486v-55h-213v-819h-60v819h-213zM678 584v874h61l336 -618l336 618h62v-874h-60v749l-338 -622l-338 622v-749h-59z" />
<glyph unicode="&#x25fc;" horiz-adv-x="983" d="M0 0v983h983v-983h-983z" />
<glyph unicode="&#xfb01;" horiz-adv-x="589" d="M102 0v1214q0 57 21.5 106.5t58.5 86.5t87 58.5t106 21.5v-57q-45 0 -84 -17.5t-67.5 -46.5t-45 -67.5t-16.5 -84.5v-913h213v686h59v-862q0 -39 27.5 -66.5t66.5 -27.5v-60q-63 0 -108 45t-45 109v119h-213v-244h-60z" />
<glyph unicode="&#xfb02;" d="M102 0v1214q0 57 21.5 106.5t58.5 86.5t87 58.5t106 21.5q55 0 105 -21.5t87 -58.5t58.5 -86t21.5 -107v-1214h-59v1214q0 45 -16.5 84t-46 68t-68.5 46.5t-82 17.5q-45 0 -84 -17.5t-67.5 -46.5t-45 -67.5t-16.5 -84.5v-913h213v-57h-213v-244h-60z" />
</font>
</defs>
</svg>
